<svg xmlns="http://www.w3.org/2000/svg" width="800" height="500" viewBox="0 0 800 500" font-family="Inter, -apple-system, BlinkMacSystemFont, sans-serif">
  <defs>
    <!-- Diagonal hatch pattern for redacted areas -->
    <pattern id="hatch" patternUnits="userSpaceOnUse" width="6" height="6" patternTransform="rotate(45)">
      <line x1="0" y1="0" x2="0" y2="6" stroke="#D4D4D4" stroke-width="1.5"/>
    </pattern>
    <pattern id="hatchAmber" patternUnits="userSpaceOnUse" width="6" height="6" patternTransform="rotate(45)">
      <line x1="0" y1="0" x2="0" y2="6" stroke="#F59E0B" stroke-width="1" opacity="0.3"/>
    </pattern>
    <!-- Blur filter for redacted text -->
    <filter id="redactBlur">
      <feGaussianBlur in="SourceGraphic" stdDeviation="3"/>
    </filter>
    <clipPath id="dashboardClip">
      <rect x="120" y="70" width="600" height="360" rx="12"/>
    </clipPath>
  </defs>

  <!-- Background -->
  <rect width="800" height="500" fill="#FAFAF8"/>

  <!-- Subtle dot pattern -->
  <g opacity="0.03">
    <circle cx="20" cy="20" r="1" fill="#1A1A1A"/>
    <circle cx="60" cy="20" r="1" fill="#1A1A1A"/>
    <circle cx="100" cy="20" r="1" fill="#1A1A1A"/>
    <circle cx="140" cy="20" r="1" fill="#1A1A1A"/>
    <circle cx="180" cy="20" r="1" fill="#1A1A1A"/>
    <circle cx="220" cy="20" r="1" fill="#1A1A1A"/>
    <circle cx="260" cy="20" r="1" fill="#1A1A1A"/>
    <circle cx="300" cy="20" r="1" fill="#1A1A1A"/>
    <circle cx="340" cy="20" r="1" fill="#1A1A1A"/>
    <circle cx="380" cy="20" r="1" fill="#1A1A1A"/>
    <circle cx="420" cy="20" r="1" fill="#1A1A1A"/>
    <circle cx="460" cy="20" r="1" fill="#1A1A1A"/>
    <circle cx="500" cy="20" r="1" fill="#1A1A1A"/>
    <circle cx="540" cy="20" r="1" fill="#1A1A1A"/>
    <circle cx="580" cy="20" r="1" fill="#1A1A1A"/>
    <circle cx="620" cy="20" r="1" fill="#1A1A1A"/>
    <circle cx="660" cy="20" r="1" fill="#1A1A1A"/>
    <circle cx="700" cy="20" r="1" fill="#1A1A1A"/>
    <circle cx="740" cy="20" r="1" fill="#1A1A1A"/>
    <circle cx="780" cy="20" r="1" fill="#1A1A1A"/>
  </g>

  <!-- ==================== Dashboard wireframe ==================== -->
  <g>
    <!-- Dashboard outer frame -->
    <rect x="120" y="70" width="600" height="360" rx="12" fill="#FFFFFF" stroke="#E5E5E5" stroke-width="1"/>

    <!-- Dark sidebar -->
    <rect x="120" y="70" width="56" height="360" rx="12" fill="#1A1A1A"/>
    <rect x="148" y="70" width="28" height="360" fill="#1A1A1A"/>

    <!-- Sidebar nav items -->
    <rect x="134" y="96" width="28" height="4" rx="2" fill="#444"/>
    <rect x="134" y="114" width="28" height="4" rx="2" fill="#444"/>
    <rect x="134" y="132" width="28" height="4" rx="2" fill="#F59E0B" opacity="0.7"/>
    <rect x="134" y="150" width="28" height="4" rx="2" fill="#444"/>
    <rect x="134" y="168" width="28" height="4" rx="2" fill="#444"/>
    <rect x="134" y="186" width="28" height="4" rx="2" fill="#444"/>

    <!-- Sidebar logo placeholder -->
    <circle cx="148" cy="84" r="3" fill="#F59E0B" opacity="0.6"/>

    <!-- Top bar -->
    <rect x="176" y="70" width="544" height="36" fill="#FCFCFB" rx="0"/>
    <line x1="176" y1="106" x2="720" y2="106" stroke="#E5E5E5" stroke-width="1"/>
    <!-- Top bar redacted breadcrumb -->
    <rect x="192" y="82" width="80" height="10" rx="3" fill="url(#hatch)"/>
    <rect x="284" y="82" width="60" height="10" rx="3" fill="url(#hatch)"/>

    <!-- ====== KPI Cards Row ====== -->
    <g transform="translate(192, 118)">
      <!-- KPI Card 1 -->
      <rect x="0" y="0" width="122" height="70" rx="8" fill="#FFFFFF" stroke="#E5E5E5" stroke-width="1"/>
      <rect x="12" y="12" width="60" height="8" rx="3" fill="url(#hatch)"/>
      <rect x="12" y="30" width="80" height="14" rx="4" fill="url(#hatch)"/>
      <rect x="12" y="50" width="40" height="6" rx="3" fill="#F59E0B" opacity="0.2"/>

      <!-- KPI Card 2 -->
      <rect x="134" y="0" width="122" height="70" rx="8" fill="#FFFFFF" stroke="#E5E5E5" stroke-width="1"/>
      <rect x="146" y="12" width="60" height="8" rx="3" fill="url(#hatch)"/>
      <rect x="146" y="30" width="80" height="14" rx="4" fill="url(#hatch)"/>
      <rect x="146" y="50" width="55" height="6" rx="3" fill="#F59E0B" opacity="0.2"/>

      <!-- KPI Card 3 -->
      <rect x="268" y="0" width="122" height="70" rx="8" fill="#FFFFFF" stroke="#E5E5E5" stroke-width="1"/>
      <rect x="280" y="12" width="60" height="8" rx="3" fill="url(#hatch)"/>
      <rect x="280" y="30" width="80" height="14" rx="4" fill="url(#hatch)"/>
      <rect x="280" y="50" width="30" height="6" rx="3" fill="#F59E0B" opacity="0.2"/>

      <!-- KPI Card 4 -->
      <rect x="402" y="0" width="122" height="70" rx="8" fill="#FFFFFF" stroke="#E5E5E5" stroke-width="1"/>
      <rect x="414" y="12" width="60" height="8" rx="3" fill="url(#hatch)"/>
      <rect x="414" y="30" width="80" height="14" rx="4" fill="url(#hatch)"/>
      <rect x="414" y="50" width="48" height="6" rx="3" fill="#F59E0B" opacity="0.2"/>
    </g>

    <!-- ====== Chart Area ====== -->
    <g transform="translate(192, 204)">
      <!-- Chart container -->
      <rect x="0" y="0" width="320" height="180" rx="8" fill="#FFFFFF" stroke="#E5E5E5" stroke-width="1"/>
      <rect x="12" y="12" width="80" height="8" rx="3" fill="url(#hatch)"/>

      <!-- Redacted chart bars -->
      <rect x="24" y="140" width="24" height="28" rx="2" fill="url(#hatchAmber)"/>
      <rect x="56" y="110" width="24" height="58" rx="2" fill="url(#hatchAmber)"/>
      <rect x="88" y="90" width="24" height="78" rx="2" fill="url(#hatchAmber)"/>
      <rect x="120" y="60" width="24" height="108" rx="2" fill="url(#hatchAmber)"/>
      <rect x="152" y="80" width="24" height="88" rx="2" fill="url(#hatchAmber)"/>
      <rect x="184" y="50" width="24" height="118" rx="2" fill="url(#hatchAmber)"/>
      <rect x="216" y="70" width="24" height="98" rx="2" fill="url(#hatchAmber)"/>
      <rect x="248" y="45" width="24" height="123" rx="2" fill="url(#hatchAmber)"/>
      <rect x="280" y="55" width="24" height="113" rx="2" fill="url(#hatchAmber)"/>

      <!-- Chart baseline -->
      <line x1="20" y1="168" x2="308" y2="168" stroke="#E5E5E5" stroke-width="1"/>
    </g>

    <!-- ====== Side panel / table ====== -->
    <g transform="translate(524, 204)">
      <rect x="0" y="0" width="190" height="180" rx="8" fill="#FFFFFF" stroke="#E5E5E5" stroke-width="1"/>
      <rect x="12" y="12" width="70" height="8" rx="3" fill="url(#hatch)"/>

      <!-- Table rows (redacted) -->
      <line x1="12" y1="32" x2="178" y2="32" stroke="#F3F3F3" stroke-width="1"/>
      <rect x="12" y="40" width="90" height="6" rx="3" fill="url(#hatch)"/>
      <rect x="140" y="40" width="34" height="6" rx="3" fill="url(#hatch)"/>

      <line x1="12" y1="54" x2="178" y2="54" stroke="#F3F3F3" stroke-width="1"/>
      <rect x="12" y="62" width="75" height="6" rx="3" fill="url(#hatch)"/>
      <rect x="140" y="62" width="34" height="6" rx="3" fill="url(#hatch)"/>

      <line x1="12" y1="76" x2="178" y2="76" stroke="#F3F3F3" stroke-width="1"/>
      <rect x="12" y="84" width="100" height="6" rx="3" fill="url(#hatch)"/>
      <rect x="140" y="84" width="34" height="6" rx="3" fill="url(#hatch)"/>

      <line x1="12" y1="98" x2="178" y2="98" stroke="#F3F3F3" stroke-width="1"/>
      <rect x="12" y="106" width="65" height="6" rx="3" fill="url(#hatch)"/>
      <rect x="140" y="106" width="34" height="6" rx="3" fill="url(#hatch)"/>

      <line x1="12" y1="120" x2="178" y2="120" stroke="#F3F3F3" stroke-width="1"/>
      <rect x="12" y="128" width="85" height="6" rx="3" fill="url(#hatch)"/>
      <rect x="140" y="128" width="34" height="6" rx="3" fill="url(#hatch)"/>

      <line x1="12" y1="142" x2="178" y2="142" stroke="#F3F3F3" stroke-width="1"/>
      <rect x="12" y="150" width="70" height="6" rx="3" fill="url(#hatch)"/>
      <rect x="140" y="150" width="34" height="6" rx="3" fill="url(#hatch)"/>

      <line x1="12" y1="164" x2="178" y2="164" stroke="#F3F3F3" stroke-width="1"/>
    </g>

    <!-- AI Badge -->
    <g transform="translate(672, 112)">
      <rect x="0" y="0" width="40" height="20" rx="6" fill="#F59E0B" opacity="0.15"/>
      <rect x="0" y="0" width="40" height="20" rx="6" fill="none" stroke="#F59E0B" stroke-width="1" opacity="0.4"/>
      <text x="20" y="14" text-anchor="middle" fill="#F59E0B" font-size="10" font-weight="700">AI</text>
    </g>
  </g>

  <!-- ==================== NDA Lock Icon ==================== -->
  <g transform="translate(370, 220)">
    <rect x="0" y="0" width="60" height="60" rx="30" fill="#FFFFFF" stroke="#F59E0B" stroke-width="2" opacity="0.95"/>
    <!-- Lock body -->
    <rect x="18" y="28" width="24" height="18" rx="3" fill="#F59E0B" opacity="0.85"/>
    <!-- Lock shackle -->
    <path d="M22 28 L22 22 C22 16 38 16 38 22 L38 28" fill="none" stroke="#F59E0B" stroke-width="2.5" stroke-linecap="round" opacity="0.85"/>
    <!-- Keyhole -->
    <circle cx="30" cy="36" r="2.5" fill="#FFFFFF"/>
    <rect x="29" y="36" width="2" height="5" rx="1" fill="#FFFFFF"/>
  </g>

  <!-- NDA Stamp-style label -->
  <g transform="translate(335, 290)">
    <rect x="0" y="0" width="130" height="32" rx="4" fill="none" stroke="#F59E0B" stroke-width="2" opacity="0.6" stroke-dasharray="4,2"/>
    <text x="65" y="21" text-anchor="middle" fill="#F59E0B" font-size="14" font-weight="700" letter-spacing="4" opacity="0.7">REDACTED</text>
  </g>

  <!-- Scanline effect overlay -->
  <g opacity="0.02" clip-path="url(#dashboardClip)">
    <line x1="120" y1="72" x2="720" y2="72" stroke="#1A1A1A" stroke-width="1"/>
    <line x1="120" y1="76" x2="720" y2="76" stroke="#1A1A1A" stroke-width="1"/>
    <line x1="120" y1="80" x2="720" y2="80" stroke="#1A1A1A" stroke-width="1"/>
    <line x1="120" y1="84" x2="720" y2="84" stroke="#1A1A1A" stroke-width="1"/>
    <line x1="120" y1="88" x2="720" y2="88" stroke="#1A1A1A" stroke-width="1"/>
  </g>

  <!-- Bottom accent bar -->
  <rect x="120" y="450" width="560" height="3" rx="1.5" fill="#F59E0B" opacity="0.15"/>
  <rect x="120" y="450" width="200" height="3" rx="1.5" fill="#F59E0B" opacity="0.4"/>
</svg>