<svg xmlns="http://www.w3.org/2000/svg" viewBox="0 0 1200 540" font-family="Inter, -apple-system, BlinkMacSystemFont, sans-serif">
  <rect width="1200" height="540" rx="16" fill="#FAFAF8"/>
  <rect x="0" y="0" width="1200" height="4" rx="2" fill="#1A1A1A"/>

  <!-- Header -->
  <text x="48" y="40" style="font-size: 10px; fill: #999; text-transform: uppercase; letter-spacing: 1px; font-weight: 600;">INFORMATION ARCHITECTURE RESTRUCTURE</text>
  <text x="48" y="72" style="font-size: 22px; font-weight: 700; fill: #1A1A1A;">From Flat Navigation to Task-Oriented Hierarchy</text>

  <!-- ============ BEFORE SIDE ============ -->
  <text x="48" y="112" style="font-size: 13px; font-weight: 700; fill: #DC2626;">Before</text>
  <text x="100" y="112" style="font-size: 13px; font-weight: 500; fill: #6B6B6B;">Flat feature-based navigation</text>

  <rect x="48" y="128" width="510" height="340" rx="12" fill="white" stroke="#FECACA" stroke-width="1.5"/>

  <!-- Subtitle inside panel -->
  <text x="72" y="156" style="font-size: 11px; fill: #999;">All features at same level &#x2014; no grouping or priority</text>

  <!-- 3x3 grid of feature boxes, centered text -->
  <!-- Row 1 -->
  <rect x="72" y="172" width="148" height="44" rx="8" fill="#FEF2F2" stroke="#FECACA" stroke-width="1"/>
  <text x="146" y="199" text-anchor="middle" style="font-size: 12px; font-weight: 500; fill: #1A1A1A;">Feature A</text>

  <rect x="232" y="172" width="148" height="44" rx="8" fill="#FEF2F2" stroke="#FECACA" stroke-width="1"/>
  <text x="306" y="199" text-anchor="middle" style="font-size: 12px; font-weight: 500; fill: #1A1A1A;">Feature B</text>

  <rect x="392" y="172" width="148" height="44" rx="8" fill="#FEF2F2" stroke="#FECACA" stroke-width="1"/>
  <text x="466" y="199" text-anchor="middle" style="font-size: 12px; font-weight: 500; fill: #1A1A1A;">Feature C</text>

  <!-- Row 2 -->
  <rect x="72" y="228" width="148" height="44" rx="8" fill="#FEF2F2" stroke="#FECACA" stroke-width="1"/>
  <text x="146" y="255" text-anchor="middle" style="font-size: 12px; font-weight: 500; fill: #1A1A1A;">Feature D</text>

  <rect x="232" y="228" width="148" height="44" rx="8" fill="#FEF2F2" stroke="#FECACA" stroke-width="1"/>
  <text x="306" y="255" text-anchor="middle" style="font-size: 12px; font-weight: 500; fill: #1A1A1A;">Feature E</text>

  <rect x="392" y="228" width="148" height="44" rx="8" fill="#FEF2F2" stroke="#FECACA" stroke-width="1"/>
  <text x="466" y="255" text-anchor="middle" style="font-size: 12px; font-weight: 500; fill: #1A1A1A;">Feature F</text>

  <!-- Row 3 -->
  <rect x="72" y="284" width="148" height="44" rx="8" fill="#FEF2F2" stroke="#FECACA" stroke-width="1"/>
  <text x="146" y="311" text-anchor="middle" style="font-size: 12px; font-weight: 500; fill: #1A1A1A;">AI Module 1</text>

  <rect x="232" y="284" width="148" height="44" rx="8" fill="#FEF2F2" stroke="#FECACA" stroke-width="1"/>
  <text x="306" y="311" text-anchor="middle" style="font-size: 12px; font-weight: 500; fill: #1A1A1A;">AI Module 2</text>

  <rect x="392" y="284" width="148" height="44" rx="8" fill="#FEF2F2" stroke="#FECACA" stroke-width="1"/>
  <text x="466" y="311" text-anchor="middle" style="font-size: 12px; font-weight: 500; fill: #1A1A1A;">Reports</text>

  <!-- Problem callout -->
  <rect x="72" y="348" width="468" height="52" rx="8" fill="#FEF2F2"/>
  <text x="88" y="370" style="font-size: 11px; font-weight: 700; fill: #DC2626;">Problem</text>
  <text x="88" y="388" style="font-size: 11px; fill: #991B1B;">No hierarchy. Users must know exactly what they need before navigating.</text>

  <!-- ============ ARROW ============ -->
  <rect x="574" y="270" width="52" height="32" rx="16" fill="#1A1A1A"/>
  <text x="600" y="291" text-anchor="middle" style="font-size: 16px; font-weight: 700; fill: white;">&#x2192;</text>

  <!-- ============ AFTER SIDE ============ -->
  <text x="642" y="112" style="font-size: 13px; font-weight: 700; fill: #16A34A;">After</text>
  <text x="686" y="112" style="font-size: 13px; font-weight: 500; fill: #6B6B6B;">Task-oriented decision hierarchy</text>

  <rect x="642" y="128" width="510" height="340" rx="12" fill="white" stroke="#DCFCE7" stroke-width="1.5"/>

  <!-- Subtitle inside panel -->
  <text x="666" y="156" style="font-size: 11px; fill: #999;">Users navigate by decision type &#x2014; matches mental model</text>

  <!-- Level 0: Hub -->
  <rect x="822" y="172" width="200" height="44" rx="10" fill="#1A1A1A"/>
  <text x="922" y="199" text-anchor="middle" style="font-size: 13px; font-weight: 600; fill: white;">Supply Chain Hub</text>

  <!-- Connector lines from hub to 3 branches -->
  <line x1="872" y1="216" x2="746" y2="248" stroke="#16A34A" stroke-width="2"/>
  <line x1="922" y1="216" x2="922" y2="248" stroke="#16A34A" stroke-width="2"/>
  <line x1="972" y1="216" x2="1098" y2="248" stroke="#16A34A" stroke-width="2"/>

  <!-- Level 1: Three decision branches -->
  <!-- Branch 1: Needs Attention -->
  <rect x="676" y="248" width="140" height="40" rx="8" fill="#F0FDF4" stroke="#16A34A" stroke-width="1.5"/>
  <text x="746" y="273" text-anchor="middle" style="font-size: 12px; font-weight: 600; fill: #166534;">Needs Attention</text>

  <!-- Branch 2: Current Status -->
  <rect x="852" y="248" width="140" height="40" rx="8" fill="#F0FDF4" stroke="#16A34A" stroke-width="1.5"/>
  <text x="922" y="273" text-anchor="middle" style="font-size: 12px; font-weight: 600; fill: #166534;">Current Status</text>

  <!-- Branch 3: Take Action -->
  <rect x="1028" y="248" width="140" height="40" rx="8" fill="#F0FDF4" stroke="#16A34A" stroke-width="1.5"/>
  <text x="1098" y="273" text-anchor="middle" style="font-size: 12px; font-weight: 600; fill: #166534;">Take Action</text>

  <!-- Level 2 connectors -->
  <!-- Branch 1 children -->
  <line x1="722" y1="288" x2="706" y2="316" stroke="#CBD5E1" stroke-width="1.5"/>
  <line x1="770" y1="288" x2="786" y2="316" stroke="#CBD5E1" stroke-width="1.5"/>
  <!-- Branch 2 children -->
  <line x1="898" y1="288" x2="882" y2="316" stroke="#CBD5E1" stroke-width="1.5"/>
  <line x1="946" y1="288" x2="962" y2="316" stroke="#CBD5E1" stroke-width="1.5"/>
  <!-- Branch 3 children -->
  <line x1="1074" y1="288" x2="1058" y2="316" stroke="#CBD5E1" stroke-width="1.5"/>
  <line x1="1122" y1="288" x2="1138" y2="316" stroke="#CBD5E1" stroke-width="1.5"/>

  <!-- Level 2 leaf nodes -->
  <!-- Branch 1 leaves -->
  <rect x="670" y="316" width="72" height="32" rx="6" fill="#EFF6FF" stroke="#BFDBFE" stroke-width="1"/>
  <text x="706" y="337" text-anchor="middle" style="font-size: 10px; font-weight: 500; fill: #1E40AF;">Alerts</text>
  <rect x="750" y="316" width="72" height="32" rx="6" fill="#EFF6FF" stroke="#BFDBFE" stroke-width="1"/>
  <text x="786" y="337" text-anchor="middle" style="font-size: 10px; font-weight: 500; fill: #1E40AF;">AI Flags</text>

  <!-- Branch 2 leaves -->
  <rect x="846" y="316" width="72" height="32" rx="6" fill="#FAFAF8" stroke="#E5E5E3" stroke-width="1"/>
  <text x="882" y="337" text-anchor="middle" style="font-size: 10px; font-weight: 500; fill: #6B6B6B;">KPIs</text>
  <rect x="926" y="316" width="72" height="32" rx="6" fill="#FAFAF8" stroke="#E5E5E3" stroke-width="1"/>
  <text x="962" y="337" text-anchor="middle" style="font-size: 10px; font-weight: 500; fill: #6B6B6B;">Trends</text>

  <!-- Branch 3 leaves -->
  <rect x="1022" y="316" width="72" height="32" rx="6" fill="#FAFAF8" stroke="#E5E5E3" stroke-width="1"/>
  <text x="1058" y="337" text-anchor="middle" style="font-size: 10px; font-weight: 500; fill: #6B6B6B;">Orders</text>
  <rect x="1102" y="316" width="72" height="32" rx="6" fill="#FAFAF8" stroke="#E5E5E3" stroke-width="1"/>
  <text x="1138" y="337" text-anchor="middle" style="font-size: 10px; font-weight: 500; fill: #6B6B6B;">Reports</text>

  <!-- SAP Fiori callout -->
  <rect x="666" y="368" width="468" height="52" rx="8" fill="#F0FDF4"/>
  <text x="682" y="390" style="font-size: 11px; font-weight: 700; fill: #166534;">SAP Fiori patterns applied</text>
  <text x="682" y="408" style="font-size: 11px; fill: #166534;">Overview Page &#x2192; Object Page &#x2192; List Report</text>

  <!-- Bottom summary bar -->
  <rect x="48" y="488" width="1104" height="36" rx="8" fill="white" stroke="#E5E5E3" stroke-width="1"/>
  <rect x="48" y="488" width="4" height="36" rx="2" fill="#1A1A1A"/>
  <text x="72" y="511" style="font-size: 11px; font-weight: 600; fill: #1A1A1A;">Result:</text>
  <text x="124" y="511" style="font-size: 11px; fill: #6B6B6B;">Users navigate by decision type instead of feature name &#x2014; reducing cognitive load and improving task completion by ~90%</text>
</svg>