<svg xmlns="http://www.w3.org/2000/svg" viewBox="0 0 1200 700" font-family="Inter, -apple-system, BlinkMacSystemFont, sans-serif">
  <defs>
    <style>
      .metric-label { font-size: 10px; fill: #999; text-transform: uppercase; letter-spacing: 1px; font-weight: 600; }
    </style>
    <pattern id="redact" patternUnits="userSpaceOnUse" width="8" height="8" patternTransform="rotate(45)">
      <line x1="0" y1="0" x2="0" y2="8" stroke="#E5E5E3" stroke-width="3"/>
    </pattern>
    <filter id="blur">
      <feGaussianBlur stdDeviation="4"/>
    </filter>
  </defs>

  <rect width="1200" height="700" rx="16" fill="#FAFAF8"/>
  <rect x="0" y="0" width="1200" height="4" rx="2" fill="#F59E0B"/>

  <!-- NDA Badge -->
  <rect x="48" y="20" width="280" height="28" rx="6" fill="#FEF3C7" stroke="#FDE68A" stroke-width="1"/>
  <text x="64" y="40" style="font-size: 11px; font-weight: 600; fill: #92400E;">Under NDA — Visuals redacted for confidentiality</text>

  <text x="48" y="84" class="metric-label">SAP FIORI DASHBOARD — RESTRUCTURED</text>
  <text x="48" y="114" style="font-size: 22px; font-weight: 700; fill: #1A1A1A;">Supply Chain Intelligence Platform — Dashboard View</text>

  <!-- Browser chrome -->
  <rect x="48" y="140" width="1104" height="540" rx="12" fill="white" stroke="#E5E5E3" stroke-width="1"/>
  <rect x="48" y="140" width="1104" height="36" rx="12" fill="#F2F1EF"/>
  <rect x="48" y="164" width="1104" height="12" fill="#F2F1EF"/>
  <circle cx="72" cy="158" r="6" fill="#FF5F57"/>
  <circle cx="92" cy="158" r="6" fill="#FEBC2E"/>
  <circle cx="112" cy="158" r="6" fill="#28C840"/>
  <rect x="200" y="149" width="300" height="18" rx="4" fill="white" stroke="#E5E5E3" stroke-width="1"/>
  <text x="216" y="163" style="font-size: 10px; fill: #999;">supply-chain.enterprise-platform.com/dashboard</text>

  <!-- Sidebar nav (redacted) -->
  <rect x="48" y="176" width="200" height="504" fill="#1A1A1A"/>
  <rect x="68" y="200" width="120" height="12" rx="3" fill="#333" filter="url(#blur)"/>
  <rect x="68" y="236" width="160" height="10" rx="3" fill="#2563EB" opacity="0.8"/>
  <text x="68" y="246" style="font-size: 10px; fill: white; font-weight: 500;">Overview</text>
  <rect x="68" y="266" width="140" height="10" rx="3" fill="#333"/>
  <rect x="68" y="296" width="130" height="10" rx="3" fill="#333"/>
  <rect x="68" y="326" width="150" height="10" rx="3" fill="#333"/>
  <rect x="68" y="356" width="120" height="10" rx="3" fill="#333"/>
  <rect x="68" y="400" width="100" height="8" rx="2" fill="#444"/>
  <rect x="68" y="420" width="140" height="10" rx="3" fill="#333"/>
  <rect x="68" y="450" width="110" height="10" rx="3" fill="#333"/>
  <rect x="68" y="480" width="130" height="10" rx="3" fill="#333"/>

  <!-- Header bar -->
  <rect x="248" y="176" width="904" height="48" fill="#FAFAF8" stroke="#E5E5E3" stroke-width="0 0 1 0"/>
  <rect x="272" y="192" width="180" height="14" rx="3" fill="#E5E5E3"/>
  <rect x="1040" y="190" width="80" height="20" rx="4" fill="#2563EB"/>
  <text x="1056" y="204" style="font-size: 10px; fill: white; font-weight: 600;">Action</text>

  <!-- Overview page structure (SAP Fiori pattern) -->
  <!-- KPI Cards Row -->
  <text x="272" y="252" style="font-size: 11px; font-weight: 600; fill: #1A1A1A;">Key Performance Indicators</text>

  <!-- KPI Card 1 -->
  <rect x="272" y="264" width="200" height="90" rx="8" fill="white" stroke="#E5E5E3" stroke-width="1"/>
  <rect x="288" y="280" width="80" height="8" rx="2" fill="url(#redact)"/>
  <rect x="288" y="300" width="60" height="20" rx="3" fill="#E5E5E3"/>
  <rect x="288" y="330" width="120" height="6" rx="2" fill="#DCFCE7"/>
  <rect x="288" y="330" width="85" height="6" rx="2" fill="#16A34A"/>

  <!-- KPI Card 2 -->
  <rect x="488" y="264" width="200" height="90" rx="8" fill="white" stroke="#E5E5E3" stroke-width="1"/>
  <rect x="504" y="280" width="100" height="8" rx="2" fill="url(#redact)"/>
  <rect x="504" y="300" width="70" height="20" rx="3" fill="#E5E5E3"/>
  <rect x="504" y="330" width="120" height="6" rx="2" fill="#FEF3C7"/>
  <rect x="504" y="330" width="70" height="6" rx="2" fill="#F59E0B"/>

  <!-- KPI Card 3 -->
  <rect x="704" y="264" width="200" height="90" rx="8" fill="white" stroke="#E5E5E3" stroke-width="1"/>
  <rect x="720" y="280" width="90" height="8" rx="2" fill="url(#redact)"/>
  <rect x="720" y="300" width="50" height="20" rx="3" fill="#E5E5E3"/>
  <rect x="720" y="330" width="120" height="6" rx="2" fill="#DCFCE7"/>
  <rect x="720" y="330" width="100" height="6" rx="2" fill="#16A34A"/>

  <!-- KPI Card 4 (AI Insight) -->
  <rect x="920" y="264" width="200" height="90" rx="8" fill="#EFF6FF" stroke="#BFDBFE" stroke-width="1"/>
  <rect x="936" y="276" width="40" height="12" rx="3" fill="#2563EB"/>
  <text x="942" y="286" style="font-size: 8px; fill: white; font-weight: 700;">AI</text>
  <rect x="936" y="300" width="60" height="20" rx="3" fill="#DBEAFE"/>
  <rect x="936" y="330" width="160" height="6" rx="2" fill="#BFDBFE"/>
  <rect x="936" y="330" width="130" height="6" rx="2" fill="#2563EB"/>

  <!-- Chart area -->
  <text x="272" y="384" style="font-size: 11px; font-weight: 600; fill: #1A1A1A;">Trend Analysis</text>
  <rect x="272" y="396" width="440" height="180" rx="8" fill="white" stroke="#E5E5E3" stroke-width="1"/>
  <!-- Chart grid lines -->
  <line x1="312" y1="420" x2="680" y2="420" stroke="#F2F1EF" stroke-width="1"/>
  <line x1="312" y1="450" x2="680" y2="450" stroke="#F2F1EF" stroke-width="1"/>
  <line x1="312" y1="480" x2="680" y2="480" stroke="#F2F1EF" stroke-width="1"/>
  <line x1="312" y1="510" x2="680" y2="510" stroke="#F2F1EF" stroke-width="1"/>
  <line x1="312" y1="540" x2="680" y2="540" stroke="#F2F1EF" stroke-width="1"/>
  <!-- Chart line -->
  <polyline points="312,520 360,500 410,510 460,470 510,440 560,450 610,420 660,430" fill="none" stroke="#2563EB" stroke-width="2.5" stroke-linecap="round" stroke-linejoin="round"/>
  <polyline points="312,540 360,530 410,535 460,510 510,490 560,500 610,480 660,470" fill="none" stroke="#CBD5E1" stroke-width="1.5" stroke-dasharray="4,3" stroke-linecap="round" stroke-linejoin="round"/>
  <!-- Axis labels (redacted) -->
  <rect x="290" y="416" width="16" height="6" rx="1" fill="#E5E5E3"/>
  <rect x="290" y="446" width="16" height="6" rx="1" fill="#E5E5E3"/>
  <rect x="290" y="476" width="16" height="6" rx="1" fill="#E5E5E3"/>
  <rect x="290" y="506" width="16" height="6" rx="1" fill="#E5E5E3"/>

  <!-- AI Recommendations panel -->
  <text x="728" y="384" style="font-size: 11px; font-weight: 600; fill: #1A1A1A;">AI Recommendations</text>
  <rect x="728" y="396" width="392" height="180" rx="8" fill="white" stroke="#E5E5E3" stroke-width="1"/>

  <!-- AI Recommendation item 1 -->
  <rect x="744" y="412" width="360" height="48" rx="6" fill="#EFF6FF"/>
  <rect x="756" y="420" width="28" height="14" rx="3" fill="#2563EB"/>
  <text x="762" y="431" style="font-size: 8px; fill: white; font-weight: 700;">AI</text>
  <rect x="792" y="420" width="200" height="8" rx="2" fill="url(#redact)"/>
  <rect x="792" y="436" width="140" height="6" rx="2" fill="#DBEAFE"/>
  <rect x="1040" y="422" width="50" height="20" rx="4" fill="white" stroke="#2563EB" stroke-width="1"/>
  <text x="1050" y="436" style="font-size: 9px; fill: #2563EB; font-weight: 600;">Review</text>

  <!-- AI Recommendation item 2 -->
  <rect x="744" y="470" width="360" height="48" rx="6" fill="#FAFAF8"/>
  <rect x="756" y="478" width="28" height="14" rx="3" fill="#2563EB"/>
  <text x="762" y="489" style="font-size: 8px; fill: white; font-weight: 700;">AI</text>
  <rect x="792" y="478" width="180" height="8" rx="2" fill="url(#redact)"/>
  <rect x="792" y="494" width="120" height="6" rx="2" fill="#DBEAFE"/>
  <rect x="1040" y="480" width="50" height="20" rx="4" fill="white" stroke="#E5E5E3" stroke-width="1"/>
  <text x="1050" y="494" style="font-size: 9px; fill: #6B6B6B; font-weight: 600;">Review</text>

  <!-- AI Recommendation item 3 -->
  <rect x="744" y="528" width="360" height="36" rx="6" fill="#FAFAF8"/>
  <rect x="756" y="536" width="28" height="14" rx="3" fill="#94A3B8"/>
  <text x="762" y="547" style="font-size: 8px; fill: white; font-weight: 700;">AI</text>
  <rect x="792" y="538" width="160" height="8" rx="2" fill="url(#redact)"/>

  <!-- Footer annotation -->
  <rect x="48" y="682" width="1104" height="0" rx="0" fill="none"/>
</svg>
