<svg xmlns="http://www.w3.org/2000/svg" viewBox="0 0 1200 720" font-family="Inter, -apple-system, BlinkMacSystemFont, sans-serif">
  <defs>
    <pattern id="redact" patternUnits="userSpaceOnUse" width="8" height="8" patternTransform="rotate(45)">
      <line x1="0" y1="0" x2="0" y2="8" stroke="#D4D4D2" stroke-width="3"/>
    </pattern>
  </defs>

  <rect width="1200" height="720" rx="16" fill="#FAFAF8"/>
  <rect x="0" y="0" width="1200" height="4" rx="2" fill="#F59E0B"/>

  <!-- NDA Badge -->
  <rect x="48" y="20" width="280" height="28" rx="6" fill="#FEF3C7" stroke="#FDE68A" stroke-width="1"/>
  <text x="64" y="40" style="font-size: 11px; font-weight: 600; fill: #92400E;">Under NDA &#x2014; Visuals redacted for confidentiality</text>

  <text x="48" y="82" style="font-size: 10px; fill: #999; text-transform: uppercase; letter-spacing: 1px; font-weight: 600;">AI-POWERED SUPPLY CHAIN ANALYSIS TOOL</text>
  <text x="48" y="112" style="font-size: 22px; font-weight: 700; fill: #1A1A1A;">Conversational AI Interface &#x2014; Dashboard View</text>

  <!-- ==================== Browser Chrome ==================== -->
  <rect x="48" y="136" width="1104" height="560" rx="12" fill="white" stroke="#E5E5E3" stroke-width="1"/>
  <!-- Title bar -->
  <rect x="48" y="136" width="1104" height="36" rx="12" fill="#F2F1EF"/>
  <rect x="48" y="160" width="1104" height="12" fill="#F2F1EF"/>
  <circle cx="72" cy="154" r="5" fill="#FF5F57"/>
  <circle cx="90" cy="154" r="5" fill="#FEBC2E"/>
  <circle cx="108" cy="154" r="5" fill="#28C840"/>
  <rect x="180" y="146" width="280" height="16" rx="4" fill="white" stroke="#E5E5E3" stroke-width="1"/>
  <text x="196" y="158" style="font-size: 9px; fill: #999;">supply-chain-intelligence.enterprise.com</text>

  <!-- ==================== Top Navigation Bar ==================== -->
  <rect x="48" y="172" width="1104" height="40" fill="white"/>
  <line x1="48" y1="212" x2="1152" y2="212" stroke="#E5E5E3" stroke-width="1"/>
  <!-- Logo placeholder -->
  <rect x="72" y="182" width="20" height="20" rx="4" fill="#76B900"/>
  <rect x="100" y="186" width="60" height="12" rx="2" fill="#E5E5E3"/>
  <!-- Nav items -->
  <rect x="200" y="188" width="64" height="8" rx="2" fill="#E5E5E3"/>
  <rect x="284" y="188" width="48" height="8" rx="2" fill="#E5E5E3"/>
  <rect x="352" y="188" width="56" height="8" rx="2" fill="#E5E5E3"/>
  <rect x="428" y="188" width="52" height="8" rx="2" fill="#E5E5E3"/>
  <!-- Right side controls -->
  <rect x="960" y="183" width="80" height="18" rx="4" fill="#F2F1EF" stroke="#E5E5E3" stroke-width="1"/>
  <text x="975" y="196" style="font-size: 9px; fill: #6B6B6B; font-weight: 500;">AI Words</text>
  <circle cx="1076" cy="192" r="8" fill="#E5E5E3"/>
  <circle cx="1100" cy="192" r="8" fill="#E5E5E3"/>
  <circle cx="1124" cy="192" r="10" fill="#76B900"/>
  <text x="1124" y="196" text-anchor="middle" style="font-size: 9px; font-weight: 700; fill: white;">JC</text>

  <!-- ==================== Left Sidebar ==================== -->
  <rect x="48" y="212" width="180" height="484" fill="#FAFAF8"/>
  <line x1="228" y1="212" x2="228" y2="696" stroke="#E5E5E3" stroke-width="1"/>

  <!-- Sidebar nav items with icons -->
  <rect x="66" y="228" width="12" height="12" rx="2" fill="none" stroke="#6B6B6B" stroke-width="1.5"/>
  <text x="86" y="239" style="font-size: 11px; fill: #6B6B6B; font-weight: 500;">Definitions</text>
  <text x="192" y="239" style="font-size: 10px; fill: #CBD5E1;">&#x2304;</text>

  <rect x="66" y="258" width="12" height="12" rx="2" fill="none" stroke="#6B6B6B" stroke-width="1.5"/>
  <text x="86" y="269" style="font-size: 11px; fill: #6B6B6B; font-weight: 500;">Feedback</text>
  <text x="192" y="269" style="font-size: 10px; fill: #CBD5E1;">&#x2304;</text>

  <rect x="66" y="288" width="12" height="12" rx="2" fill="none" stroke="#6B6B6B" stroke-width="1.5"/>
  <text x="86" y="299" style="font-size: 11px; fill: #6B6B6B; font-weight: 500;">Chat History</text>
  <text x="192" y="299" style="font-size: 10px; fill: #CBD5E1;">&#x2304;</text>

  <rect x="66" y="318" width="12" height="12" rx="2" fill="none" stroke="#6B6B6B" stroke-width="1.5"/>
  <text x="86" y="329" style="font-size: 11px; fill: #6B6B6B; font-weight: 500;">Use Case List</text>
  <text x="192" y="329" style="font-size: 10px; fill: #CBD5E1;">&#x203A;</text>

  <!-- Bottom sidebar items -->
  <rect x="66" y="648" width="12" height="12" rx="6" fill="none" stroke="#6B6B6B" stroke-width="1.5"/>
  <text x="86" y="659" style="font-size: 10px; fill: #6B6B6B;">Restart Session</text>
  <rect x="66" y="672" width="12" height="12" rx="2" fill="none" stroke="#6B6B6B" stroke-width="1.5"/>
  <text x="86" y="683" style="font-size: 10px; fill: #6B6B6B;">Log Out</text>

  <!-- ==================== Main Content Area ==================== -->
  <!-- Page heading -->
  <text x="268" y="248" style="font-size: 18px; font-weight: 700; fill: #76B900;">Talk to your supply chain</text>
  <text x="268" y="268" style="font-size: 11px; fill: #6B6B6B;">Turn data into insights with advanced analytics from LLMs (Check for accuracy)</text>
  <line x1="268" y1="280" x2="1120" y2="280" stroke="#E5E5E3" stroke-width="1"/>

  <!-- Analysis tab -->
  <text x="268" y="304" style="font-size: 13px; fill: #6B6B6B;">Analysis One</text>
  <text x="380" y="304" style="font-size: 11px; fill: #76B900;">Create Analysis</text>
  <text x="960" y="304" style="font-size: 10px; fill: #76B900;">Analysis Auto-Saved &#x2713;</text>

  <!-- ==================== Welcome Card ==================== -->
  <rect x="268" y="320" width="852" height="168" rx="10" fill="#F7FEE7" stroke="#D9F99D" stroke-width="1.5"/>

  <text x="296" y="348" style="font-size: 14px; font-weight: 700; fill: #1A1A1A;">Welcome to Talk to your Supply Chain!</text>
  <text x="296" y="368" style="font-size: 11px; fill: #6B6B6B;">This tool helps you analyze supply chain data &#x2014; demand, supply, shortage, and excess trends.</text>
  <text x="296" y="388" style="font-size: 11px; fill: #6B6B6B;">Simply ask your questions, and the tool will generate insights from real-time operations data.</text>

  <text x="296" y="414" style="font-size: 12px; font-weight: 700; fill: #1A1A1A;">Get Started by Exploring an Analysis</text>

  <!-- Analysis type selector -->
  <rect x="296" y="424" width="160" height="28" rx="6" fill="white" stroke="#E5E5E3" stroke-width="1"/>
  <text x="312" y="443" style="font-size: 11px; fill: #1A1A1A;">Supply Gap Analysis</text>
  <text x="438" y="443" style="font-size: 10px; fill: #CBD5E1;">&#x2304;</text>

  <!-- Description text -->
  <text x="296" y="476" style="font-size: 10px; fill: #6B6B6B;">Identify where projected demand exceeds available supply, helping prevent potential disruptions.</text>

  <!-- ==================== Prompt Suggestion Cards ==================== -->
  <rect x="268" y="500" width="268" height="60" rx="8" fill="white" stroke="#D9F99D" stroke-width="1.5"/>
  <circle cx="290" cy="530" r="14" fill="#76B900" opacity="0.15"/>
  <rect x="282" y="524" width="16" height="12" rx="2" fill="#76B900" opacity="0.5"/>
  <text x="312" y="522" style="font-size: 11px; font-weight: 500; fill: #1A1A1A;">Can you break this</text>
  <text x="312" y="538" style="font-size: 11px; font-weight: 500; fill: #1A1A1A;">down by CM Site?</text>
  <text x="312" y="554" style="font-size: 9px; fill: #76B900;">Use this prompt! &#x2192;</text>

  <rect x="552" y="500" width="268" height="60" rx="8" fill="white" stroke="#D9F99D" stroke-width="1.5"/>
  <circle cx="574" cy="530" r="14" fill="#76B900" opacity="0.15"/>
  <rect x="566" y="524" width="16" height="12" rx="2" fill="#76B900" opacity="0.5"/>
  <text x="596" y="522" style="font-size: 11px; font-weight: 500; fill: #1A1A1A;">What is the lead time</text>
  <text x="596" y="538" style="font-size: 11px; font-weight: 500; fill: #1A1A1A;">for these components?</text>
  <text x="596" y="554" style="font-size: 9px; fill: #76B900;">Use this prompt! &#x2192;</text>

  <rect x="836" y="500" width="268" height="60" rx="8" fill="white" stroke="#D9F99D" stroke-width="1.5"/>
  <circle cx="858" cy="530" r="14" fill="#76B900" opacity="0.15"/>
  <rect x="850" y="524" width="16" height="12" rx="2" fill="#76B900" opacity="0.5"/>
  <text x="880" y="522" style="font-size: 11px; font-weight: 500; fill: #1A1A1A;">Generate a pie chart</text>
  <text x="880" y="538" style="font-size: 11px; font-weight: 500; fill: #1A1A1A;">for the shortage</text>
  <text x="880" y="554" style="font-size: 9px; fill: #76B900;">Use this prompt! &#x2192;</text>

  <text x="268" y="586" style="font-size: 11px; fill: #76B900; font-weight: 500;">See more questions &#x2192;</text>

  <!-- ==================== Reasoning Level Selector ==================== -->
  <rect x="268" y="604" width="200" height="76" rx="8" fill="white" stroke="#E5E5E3" stroke-width="1"/>
  <text x="288" y="624" style="font-size: 11px; font-weight: 700; fill: #1A1A1A;">Choose Reasoning level</text>
  <line x1="288" y1="632" x2="448" y2="632" stroke="#E5E5E3" stroke-width="1"/>
  <text x="308" y="650" style="font-size: 10px; fill: #6B6B6B;">Fast Mode</text>
  <text x="308" y="666" style="font-size: 10px; fill: #6B6B6B;">Thinking Mode</text>

  <!-- ==================== Chat Input Bar ==================== -->
  <rect x="268" y="684" width="852" height="8" fill="white"/>
  <rect x="268" y="676" width="760" height="16" rx="8" fill="white" stroke="#E5E5E3" stroke-width="1"/>
  <circle cx="284" cy="684" r="6" fill="#76B900" opacity="0.3"/>
  <text x="296" y="688" style="font-size: 9px; fill: #CBD5E1;">Write your lines here</text>
  <circle cx="1104" cy="684" r="8" fill="#E5E5E3"/>

  <!-- Analysis type pill -->
  <rect x="480" y="684" width="140" height="8" rx="4" fill="#76B900" opacity="0.15"/>
</svg>