<svg xmlns="http://www.w3.org/2000/svg" width="800" height="500" viewBox="0 0 800 500" font-family="Inter, -apple-system, BlinkMacSystemFont, sans-serif">
  <defs>
  </defs>

  <!-- Background -->
  <rect width="800" height="500" fill="#FAFAF8"/>

  <!-- Subtle grid pattern -->
  <g opacity="0.04">
    <line x1="0" y1="0" x2="0" y2="500" stroke="#1A1A1A" stroke-width="1"/>
    <line x1="40" y1="0" x2="40" y2="500" stroke="#1A1A1A" stroke-width="1"/>
    <line x1="80" y1="0" x2="80" y2="500" stroke="#1A1A1A" stroke-width="1"/>
    <line x1="120" y1="0" x2="120" y2="500" stroke="#1A1A1A" stroke-width="1"/>
    <line x1="160" y1="0" x2="160" y2="500" stroke="#1A1A1A" stroke-width="1"/>
    <line x1="200" y1="0" x2="200" y2="500" stroke="#1A1A1A" stroke-width="1"/>
    <line x1="240" y1="0" x2="240" y2="500" stroke="#1A1A1A" stroke-width="1"/>
    <line x1="280" y1="0" x2="280" y2="500" stroke="#1A1A1A" stroke-width="1"/>
    <line x1="320" y1="0" x2="320" y2="500" stroke="#1A1A1A" stroke-width="1"/>
    <line x1="360" y1="0" x2="360" y2="500" stroke="#1A1A1A" stroke-width="1"/>
    <line x1="400" y1="0" x2="400" y2="500" stroke="#1A1A1A" stroke-width="1"/>
    <line x1="440" y1="0" x2="440" y2="500" stroke="#1A1A1A" stroke-width="1"/>
    <line x1="480" y1="0" x2="480" y2="500" stroke="#1A1A1A" stroke-width="1"/>
    <line x1="520" y1="0" x2="520" y2="500" stroke="#1A1A1A" stroke-width="1"/>
    <line x1="560" y1="0" x2="560" y2="500" stroke="#1A1A1A" stroke-width="1"/>
    <line x1="600" y1="0" x2="600" y2="500" stroke="#1A1A1A" stroke-width="1"/>
    <line x1="640" y1="0" x2="640" y2="500" stroke="#1A1A1A" stroke-width="1"/>
    <line x1="680" y1="0" x2="680" y2="500" stroke="#1A1A1A" stroke-width="1"/>
    <line x1="720" y1="0" x2="720" y2="500" stroke="#1A1A1A" stroke-width="1"/>
    <line x1="760" y1="0" x2="760" y2="500" stroke="#1A1A1A" stroke-width="1"/>
    <line x1="800" y1="0" x2="800" y2="500" stroke="#1A1A1A" stroke-width="1"/>
    <line x1="0" y1="40" x2="800" y2="40" stroke="#1A1A1A" stroke-width="1"/>
    <line x1="0" y1="80" x2="800" y2="80" stroke="#1A1A1A" stroke-width="1"/>
    <line x1="0" y1="120" x2="800" y2="120" stroke="#1A1A1A" stroke-width="1"/>
    <line x1="0" y1="160" x2="800" y2="160" stroke="#1A1A1A" stroke-width="1"/>
    <line x1="0" y1="200" x2="800" y2="200" stroke="#1A1A1A" stroke-width="1"/>
    <line x1="0" y1="240" x2="800" y2="240" stroke="#1A1A1A" stroke-width="1"/>
    <line x1="0" y1="280" x2="800" y2="280" stroke="#1A1A1A" stroke-width="1"/>
    <line x1="0" y1="320" x2="800" y2="320" stroke="#1A1A1A" stroke-width="1"/>
    <line x1="0" y1="360" x2="800" y2="360" stroke="#1A1A1A" stroke-width="1"/>
    <line x1="0" y1="400" x2="800" y2="400" stroke="#1A1A1A" stroke-width="1"/>
    <line x1="0" y1="440" x2="800" y2="440" stroke="#1A1A1A" stroke-width="1"/>
    <line x1="0" y1="480" x2="800" y2="480" stroke="#1A1A1A" stroke-width="1"/>
  </g>

  <!-- Central arrow / comparison divider -->
  <line x1="400" y1="90" x2="400" y2="410" stroke="#1A1A1A" stroke-width="1.5" stroke-dasharray="6,4" opacity="0.2"/>

  <!-- "A/B" label top center -->
  <rect x="370" y="52" width="60" height="26" rx="13" fill="#2563EB"/>
  <text x="400" y="69" text-anchor="middle" fill="#FFFFFF" font-size="12" font-weight="600">A / B</text>

  <!-- ==================== BEFORE Panel (Left) ==================== -->
  <g transform="translate(80, 100)">
    <!-- Panel card -->
    <rect width="270" height="290" rx="12" fill="#FFFFFF" stroke="#E5E5E5" stroke-width="1"/>

    <!-- Header -->
    <rect width="270" height="44" rx="12" fill="#FFFFFF"/>
    <rect y="32" width="270" height="12" fill="#FFFFFF"/>
    <line x1="0" y1="44" x2="270" y2="44" stroke="#E5E5E5" stroke-width="1"/>
    <text x="20" y="30" fill="#DC2626" font-size="13" font-weight="600">Before</text>
    <circle cx="240" cy="26" r="6" fill="none" stroke="#DC2626" stroke-width="1.5"/>
    <line x1="237" y1="23" x2="243" y2="29" stroke="#DC2626" stroke-width="1.5"/>
    <line x1="243" y1="23" x2="237" y2="29" stroke="#DC2626" stroke-width="1.5"/>

    <!-- Score circle -->
    <circle cx="135" cy="110" r="42" fill="none" stroke="#F3F3F3" stroke-width="6"/>
    <circle cx="135" cy="110" r="42" fill="none" stroke="#DC2626" stroke-width="6" stroke-dasharray="66 198" stroke-dashoffset="0" stroke-linecap="round" transform="rotate(-90 135 110)"/>
    <text x="135" y="106" text-anchor="middle" fill="#DC2626" font-size="24" font-weight="700">32</text>
    <text x="135" y="120" text-anchor="middle" fill="#999" font-size="10" font-weight="500">/ 100</text>

    <!-- Usability score label -->
    <text x="135" y="170" text-anchor="middle" fill="#999" font-size="10" font-weight="500">Usability Score</text>

    <!-- Metrics rows -->
    <g transform="translate(24, 190)">
      <text x="0" y="0" fill="#888" font-size="10">Task Success</text>
      <rect x="120" y="-8" width="120" height="6" rx="3" fill="#F3F3F3"/>
      <rect x="120" y="-8" width="36" height="6" rx="3" fill="#DC2626"/>
      <text x="248" y="0" text-anchor="end" fill="#DC2626" font-size="10" font-weight="600">30%</text>
    </g>
    <g transform="translate(24, 214)">
      <text x="0" y="0" fill="#888" font-size="10">Completion</text>
      <rect x="120" y="-8" width="120" height="6" rx="3" fill="#F3F3F3"/>
      <rect x="120" y="-8" width="48" height="6" rx="3" fill="#DC2626"/>
      <text x="248" y="0" text-anchor="end" fill="#DC2626" font-size="10" font-weight="600">40%</text>
    </g>
    <g transform="translate(24, 238)">
      <text x="0" y="0" fill="#888" font-size="10">Satisfaction</text>
      <rect x="120" y="-8" width="120" height="6" rx="3" fill="#F3F3F3"/>
      <rect x="120" y="-8" width="30" height="6" rx="3" fill="#DC2626"/>
      <text x="248" y="0" text-anchor="end" fill="#DC2626" font-size="10" font-weight="600">25%</text>
    </g>

    <!-- Misclick indicators -->
    <g transform="translate(24, 260)">
      <circle cx="4" cy="6" r="3" fill="#DC2626" opacity="0.3"/>
      <circle cx="28" cy="2" r="2" fill="#DC2626" opacity="0.2"/>
      <circle cx="50" cy="8" r="4" fill="#DC2626" opacity="0.25"/>
      <text x="66" y="10" fill="#CCC" font-size="8">misclicks detected</text>
    </g>
  </g>

  <!-- ==================== AFTER Panel (Right) ==================== -->
  <g transform="translate(450, 100)">
    <!-- Panel card -->
    <rect width="270" height="290" rx="12" fill="#FFFFFF" stroke="#E5E5E5" stroke-width="1"/>

    <!-- Header -->
    <rect width="270" height="44" rx="12" fill="#FFFFFF"/>
    <rect y="32" width="270" height="12" fill="#FFFFFF"/>
    <line x1="0" y1="44" x2="270" y2="44" stroke="#E5E5E5" stroke-width="1"/>
    <text x="20" y="30" fill="#16A34A" font-size="13" font-weight="600">After</text>
    <circle cx="240" cy="26" r="6" fill="none" stroke="#16A34A" stroke-width="1.5"/>
    <polyline points="236,26 239,29 244,23" fill="none" stroke="#16A34A" stroke-width="1.5" stroke-linecap="round" stroke-linejoin="round"/>

    <!-- Score circle -->
    <circle cx="135" cy="110" r="42" fill="none" stroke="#F3F3F3" stroke-width="6"/>
    <circle cx="135" cy="110" r="42" fill="none" stroke="#16A34A" stroke-width="6" stroke-dasharray="224 40" stroke-dashoffset="0" stroke-linecap="round" transform="rotate(-90 135 110)"/>
    <text x="135" y="106" text-anchor="middle" fill="#16A34A" font-size="24" font-weight="700">89</text>
    <text x="135" y="120" text-anchor="middle" fill="#999" font-size="10" font-weight="500">/ 100</text>

    <!-- Usability score label -->
    <text x="135" y="170" text-anchor="middle" fill="#999" font-size="10" font-weight="500">Usability Score</text>

    <!-- Metrics rows -->
    <g transform="translate(24, 190)">
      <text x="0" y="0" fill="#888" font-size="10">Task Success</text>
      <rect x="120" y="-8" width="120" height="6" rx="3" fill="#F3F3F3"/>
      <rect x="120" y="-8" width="108" height="6" rx="3" fill="#16A34A"/>
      <text x="248" y="0" text-anchor="end" fill="#16A34A" font-size="10" font-weight="600">92%</text>
    </g>
    <g transform="translate(24, 214)">
      <text x="0" y="0" fill="#888" font-size="10">Completion</text>
      <rect x="120" y="-8" width="120" height="6" rx="3" fill="#F3F3F3"/>
      <rect x="120" y="-8" width="104" height="6" rx="3" fill="#16A34A"/>
      <text x="248" y="0" text-anchor="end" fill="#16A34A" font-size="10" font-weight="600">87%</text>
    </g>
    <g transform="translate(24, 238)">
      <text x="0" y="0" fill="#888" font-size="10">Satisfaction</text>
      <rect x="120" y="-8" width="120" height="6" rx="3" fill="#F3F3F3"/>
      <rect x="120" y="-8" width="112" height="6" rx="3" fill="#16A34A"/>
      <text x="248" y="0" text-anchor="end" fill="#16A34A" font-size="10" font-weight="600">94%</text>
    </g>

    <!-- Clean flow indicators -->
    <g transform="translate(24, 260)">
      <circle cx="4" cy="6" r="3" fill="#16A34A" opacity="0.3"/>
      <circle cx="16" cy="6" r="3" fill="#16A34A" opacity="0.3"/>
      <circle cx="28" cy="6" r="3" fill="#16A34A" opacity="0.3"/>
      <text x="40" y="10" fill="#CCC" font-size="8">clean task flows</text>
    </g>
  </g>

  <!-- Maze-style icon (top right area) -->
  <g transform="translate(700, 436)">
    <rect x="0" y="0" width="18" height="18" rx="4" fill="#2563EB" opacity="0.1"/>
    <path d="M4 9 L8 5 L12 9 L8 13 Z" fill="none" stroke="#2563EB" stroke-width="1.2" opacity="0.5"/>
    <circle cx="8" cy="9" r="2" fill="#2563EB" opacity="0.4"/>
  </g>

  <!-- Bottom progress bar -->
  <rect x="80" y="420" width="640" height="4" rx="2" fill="#F3F3F3"/>
  <rect x="80" y="420" width="440" height="4" rx="2" fill="#2563EB" opacity="0.6"/>

  <!-- Arrow between panels -->
  <g transform="translate(388, 240)">
    <polygon points="12,0 24,10 12,20" fill="#2563EB" opacity="0.25"/>
  </g>

  <!-- Improvement badge -->
  <g transform="translate(358, 440)">
    <rect x="0" y="0" width="84" height="24" rx="12" fill="#16A34A" opacity="0.1"/>
    <text x="42" y="16" text-anchor="middle" fill="#16A34A" font-size="11" font-weight="600">+178%</text>
  </g>
</svg>