<svg width="41" height="38" viewBox="0 0 41 38" fill="none" xmlns="http://www.w3.org/2000/svg">
<g filter="url(#filter0_dd_1083_50505)">
<g clip-path="url(#clip0_1083_50505)">
<path opacity="0.7" d="M21.0964 2.00812C20.2484 2.00811 19.4243 2.28949 18.7534 2.80815L4.55622 13.7834C1.54676 16.5703 3.36298 21.5317 7.32874 21.8391C7.45667 21.849 7.58683 21.854 7.71914 21.854C7.7191 21.854 7.71919 21.854 7.71914 21.854L22.973 21.8541L16.7214 26.6479C13.7803 28.9032 15.3752 33.6039 19.0814 33.6039C19.9399 33.6039 20.7742 33.319 21.4534 32.794L35.6378 21.8286C37.6175 19.9953 37.5089 17.2209 36.0739 15.4495L36.0721 15.4471C35.2819 14.473 34.0902 13.8027 32.6239 13.7601C32.5746 13.7587 32.5248 13.758 32.4749 13.758L29.8418 13.758C29.8418 13.758 29.8461 13.7587 29.8543 13.7601H17.1384L23.4452 8.86515C26.3282 6.62753 24.7459 2.00816 21.0964 2.00812Z" fill="#BF97FF"/>
<path d="M7.72242 21.8534C7.72238 21.8534 7.72246 21.8534 7.72242 21.8534H10.3533C10.3535 21.8534 10.3535 21.853 10.3533 21.853C10.3531 21.853 10.3531 21.8526 10.3533 21.8526C10.3801 21.8531 10.4069 21.8534 10.4338 21.8534L35.5667 21.8534C35.5937 21.8534 35.6199 21.8445 35.6412 21.828C37.6218 19.9939 37.5123 17.218 36.0755 15.4466C35.2853 14.4725 34.0934 13.802 32.6272 13.7595H4.62759C4.60294 13.7595 4.57899 13.7676 4.55949 13.7827C1.5141 16.6029 3.41031 21.6498 7.47497 21.8474C7.55659 21.8514 7.63908 21.8534 7.72242 21.8534Z" fill="#2F56E1"/>
<g style="mix-blend-mode:overlay">
<path d="M21.4565 32.7933C20.7773 33.3183 19.943 33.6032 19.0845 33.6032C15.3783 33.6032 13.7834 28.9025 16.7245 26.6472L29.6136 16.7636C32.726 14.3827 29.8448 13.7573 29.8448 13.7573L32.478 13.7573C36.7119 13.7573 38.7474 18.9512 35.6409 21.8279L21.4565 32.7933Z" fill="url(#paint0_linear_1083_50505)"/>
</g>
<path d="M18.7567 2.80747C19.4276 2.28881 20.2517 2.00744 21.0997 2.00745C24.7491 2.00749 26.3314 6.62686 23.4485 8.86448L10.5868 18.847C7.72242 21.1086 10.3555 21.8534 10.3555 21.8534H7.72242C3.48845 21.8534 1.45295 16.6595 4.55949 13.7827L18.7567 2.80747Z" fill="url(#paint1_linear_1083_50505)"/>
</g>
</g>
<defs>
<filter id="filter0_dd_1083_50505" x="0" y="0" width="40.2096" height="37.8174" filterUnits="userSpaceOnUse" color-interpolation-filters="sRGB">
<feFlood flood-opacity="0" result="BackgroundImageFix"/>
<feColorMatrix in="SourceAlpha" type="matrix" values="0 0 0 0 0 0 0 0 0 0 0 0 0 0 0 0 0 0 127 0" result="hardAlpha"/>
<feOffset dy="1"/>
<feGaussianBlur stdDeviation="1"/>
<feColorMatrix type="matrix" values="0 0 0 0 0.0627451 0 0 0 0 0.0941176 0 0 0 0 0.156863 0 0 0 0.06 0"/>
<feBlend mode="normal" in2="BackgroundImageFix" result="effect1_dropShadow_1083_50505"/>
<feColorMatrix in="SourceAlpha" type="matrix" values="0 0 0 0 0 0 0 0 0 0 0 0 0 0 0 0 0 0 127 0" result="hardAlpha"/>
<feOffset dy="1"/>
<feGaussianBlur stdDeviation="1.5"/>
<feColorMatrix type="matrix" values="0 0 0 0 0.0627451 0 0 0 0 0.0941176 0 0 0 0 0.156863 0 0 0 0.1 0"/>
<feBlend mode="normal" in2="effect1_dropShadow_1083_50505" result="effect2_dropShadow_1083_50505"/>
<feBlend mode="normal" in="SourceGraphic" in2="effect2_dropShadow_1083_50505" result="shape"/>
</filter>
<linearGradient id="paint0_linear_1083_50505" x1="9.36217" y1="35.822" x2="41.9935" y2="10.6897" gradientUnits="userSpaceOnUse">
<stop stop-color="#F410AC"/>
<stop offset="1" stop-color="#F410AC" stop-opacity="0"/>
</linearGradient>
<linearGradient id="paint1_linear_1083_50505" x1="30.6723" y1="-0.0836394" x2="-1.79316" y2="24.921" gradientUnits="userSpaceOnUse">
<stop stop-color="#FFC238"/>
<stop offset="1" stop-color="#FFC238" stop-opacity="0"/>
</linearGradient>
<clipPath id="clip0_1083_50505">
<rect width="34.2096" height="31.8174" fill="white" transform="translate(3 2)"/>
</clipPath>
</defs>
</svg>
