<svg width="149" height="50" viewBox="0 0 149 50" fill="none" xmlns="http://www.w3.org/2000/svg">
<path d="M9.98605 27.2521C8.23405 27.2521 6.65005 26.9521 5.23405 26.3521C3.84205 25.7521 2.73805 24.8881 1.92205 23.7601C1.10605 22.6321 0.686048 21.3001 0.662048 19.7641H6.06205C6.13405 20.7961 6.49405 21.6121 7.14205 22.2121C7.81405 22.8121 8.72605 23.1121 9.87805 23.1121C11.054 23.1121 11.978 22.8361 12.65 22.2841C13.322 21.7081 13.658 20.9641 13.658 20.0521C13.658 19.3081 13.43 18.6961 12.974 18.2161C12.518 17.7361 11.942 17.3641 11.246 17.1001C10.574 16.8121 9.63805 16.5001 8.43805 16.1641C6.80605 15.6841 5.47405 15.2161 4.44205 14.7601C3.43405 14.2801 2.55805 13.5721 1.81405 12.6361C1.09405 11.6761 0.734048 10.4041 0.734048 8.82011C0.734048 7.33211 1.10605 6.03611 1.85005 4.93211C2.59405 3.82811 3.63805 2.98811 4.98205 2.41211C6.32605 1.81211 7.86205 1.51211 9.59005 1.51211C12.182 1.51211 14.282 2.14811 15.89 3.42011C17.5221 4.66811 18.4221 6.42011 18.59 8.67611H13.046C12.998 7.81211 12.626 7.10411 11.93 6.55211C11.258 5.97611 10.358 5.68811 9.23005 5.68811C8.24605 5.68811 7.45405 5.94011 6.85405 6.44411C6.27805 6.94811 5.99005 7.68011 5.99005 8.64011C5.99005 9.31211 6.20605 9.87611 6.63805 10.3321C7.09405 10.7641 7.64605 11.1241 8.29405 11.4121C8.96605 11.6761 9.90205 11.9881 11.102 12.3481C12.734 12.8281 14.066 13.3081 15.098 13.7881C16.13 14.2681 17.018 14.9881 17.762 15.9481C18.506 16.9081 18.878 18.1681 18.878 19.7281C18.878 21.0721 18.53 22.3201 17.834 23.4721C17.138 24.6241 16.118 25.5481 14.774 26.2441C13.43 26.9161 11.834 27.2521 9.98605 27.2521Z" fill="#6941C6"/>
<path d="M33.7595 6.76811C35.2715 6.76811 36.6155 7.10411 37.7915 7.77611C38.9676 8.42411 39.8796 9.39611 40.5275 10.6921C41.1995 11.9641 41.5355 13.5001 41.5355 15.3001V27.0001H36.4955V15.9841C36.4955 14.4001 36.0995 13.1881 35.3075 12.3481C34.5155 11.4841 33.4355 11.0521 32.0675 11.0521C30.6755 11.0521 29.5715 11.4841 28.7555 12.3481C27.9635 13.1881 27.5675 14.4001 27.5675 15.9841V27.0001H22.5275V0.360107H27.5675V9.54011C28.2155 8.67611 29.0795 8.00411 30.1595 7.52411C31.2395 7.02011 32.4395 6.76811 33.7595 6.76811Z" fill="#6941C6"/>
<path d="M54.4643 27.3241C52.5443 27.3241 50.8163 26.9041 49.2803 26.0641C47.7443 25.2001 46.5323 23.9881 45.6443 22.4281C44.7803 20.8681 44.3483 19.0681 44.3483 17.0281C44.3483 14.9881 44.7923 13.1881 45.6803 11.6281C46.5923 10.0681 47.8283 8.86811 49.3883 8.02811C50.9483 7.16411 52.6883 6.73211 54.6083 6.73211C56.5283 6.73211 58.2683 7.16411 59.8283 8.02811C61.3883 8.86811 62.6123 10.0681 63.5003 11.6281C64.4123 13.1881 64.8683 14.9881 64.8683 17.0281C64.8683 19.0681 64.4003 20.8681 63.4643 22.4281C62.5523 23.9881 61.3043 25.2001 59.7203 26.0641C58.1603 26.9041 56.4083 27.3241 54.4643 27.3241ZM54.4643 22.9321C55.3763 22.9321 56.2283 22.7161 57.0203 22.2841C57.8363 21.8281 58.4843 21.1561 58.9643 20.2681C59.4443 19.3801 59.6843 18.3001 59.6843 17.0281C59.6843 15.1321 59.1803 13.6801 58.1723 12.6721C57.1883 11.6401 55.9763 11.1241 54.5363 11.1241C53.0963 11.1241 51.8843 11.6401 50.9003 12.6721C49.9403 13.6801 49.4603 15.1321 49.4603 17.0281C49.4603 18.9241 49.9283 20.3881 50.8643 21.4201C51.8243 22.4281 53.0243 22.9321 54.4643 22.9321Z" fill="#6941C6"/>
<path d="M95.4934 7.05611L89.6614 27.0001H84.2254L80.5894 13.0681L76.9534 27.0001H71.4814L65.6134 7.05611H70.7254L74.2534 22.2481L78.0694 7.05611H83.3974L87.1414 22.2121L90.6694 7.05611H95.4934Z" fill="#6941C6"/>
<path d="M124.896 1.87211V27.0001H119.856V10.6561L113.124 27.0001H109.308L102.54 10.6561V27.0001H97.5004V1.87211H103.224L111.216 20.5561L119.208 1.87211H124.896Z" fill="#42307D"/>
<path d="M147.699 16.5961C147.699 17.3161 147.651 17.9641 147.555 18.5401H132.975C133.095 19.9801 133.599 21.1081 134.487 21.9241C135.375 22.7401 136.467 23.1481 137.763 23.1481C139.635 23.1481 140.967 22.3441 141.759 20.7361H147.195C146.619 22.6561 145.515 24.2401 143.883 25.4881C142.251 26.7121 140.247 27.3241 137.871 27.3241C135.951 27.3241 134.223 26.9041 132.687 26.0641C131.175 25.2001 129.987 23.9881 129.123 22.4281C128.283 20.8681 127.863 19.0681 127.863 17.0281C127.863 14.9641 128.283 13.1521 129.123 11.5921C129.963 10.0321 131.139 8.83211 132.651 7.99211C134.163 7.15211 135.903 6.73211 137.871 6.73211C139.767 6.73211 141.459 7.14011 142.947 7.95611C144.459 8.77211 145.623 9.93611 146.439 11.4481C147.279 12.9361 147.699 14.6521 147.699 16.5961ZM142.479 15.1561C142.455 13.8601 141.987 12.8281 141.075 12.0601C140.163 11.2681 139.047 10.8721 137.727 10.8721C136.479 10.8721 135.423 11.2561 134.559 12.0241C133.719 12.7681 133.203 13.8121 133.011 15.1561H142.479Z" fill="#42307D"/>
<path d="M70.7409 42.1109C71.0154 42.1543 71.2645 42.2662 71.4884 42.4468C71.7195 42.6273 71.9001 42.8512 72.0301 43.1184C72.1673 43.3857 72.2359 43.6709 72.2359 43.9743C72.2359 44.3571 72.1384 44.7037 71.9434 45.0143C71.7484 45.3176 71.4631 45.5596 71.0876 45.7401C70.7193 45.9134 70.2823 46.0001 69.7768 46.0001H66.9601V38.4493H69.6684C70.1812 38.4493 70.6181 38.5359 70.9793 38.7093C71.3404 38.8754 71.6112 39.1029 71.7918 39.3918C71.9723 39.6807 72.0626 40.0057 72.0626 40.3668C72.0626 40.8146 71.9398 41.1865 71.6943 41.4826C71.4559 41.7715 71.1381 41.9809 70.7409 42.1109ZM67.9459 41.7101H69.6034C70.0656 41.7101 70.4231 41.6018 70.6759 41.3851C70.9287 41.1684 71.0551 40.8687 71.0551 40.4859C71.0551 40.1032 70.9287 39.8034 70.6759 39.5868C70.4231 39.3701 70.0584 39.2618 69.5818 39.2618H67.9459V41.7101ZM69.6901 45.1876C70.1812 45.1876 70.564 45.0721 70.8384 44.8409C71.1129 44.6098 71.2501 44.2884 71.2501 43.8768C71.2501 43.4579 71.1056 43.1293 70.8168 42.8909C70.5279 42.6454 70.1415 42.5226 69.6576 42.5226H67.9459V45.1876H69.6901Z" fill="#333333"/>
<path d="M78.7173 40.0634L75.1423 48.7951H74.124L75.294 45.9351L72.8998 40.0634H73.994L75.8573 44.8734L77.699 40.0634H78.7173Z" fill="#333333"/>
<path d="M93.1368 34.0478C92.7307 34.0478 92.3361 34.1826 92.0148 34.4309L85.2162 39.6867C83.775 41.0212 84.6448 43.3971 86.5439 43.5443C86.6051 43.5491 86.6675 43.5515 86.7308 43.5515C86.7308 43.5515 86.7308 43.5515 86.7308 43.5515L94.0355 43.5515L91.0417 45.8472C89.6334 46.9271 90.3971 49.1782 92.1719 49.1782C92.583 49.1782 92.9825 49.0418 93.3078 48.7903L100.1 43.5393C101.048 42.6614 100.996 41.3328 100.309 40.4845L100.308 40.4834C99.9299 40.0169 99.3592 39.6959 98.6571 39.6755C98.6334 39.6749 98.6096 39.6745 98.5857 39.6745H97.3247C97.3247 39.6745 97.3268 39.6748 97.3307 39.6755H91.2415L94.2616 37.3315C95.6422 36.2599 94.8845 34.0478 93.1368 34.0478Z" fill="#BF97FF"/>
<path d="M86.7324 43.5511C86.7324 43.5511 86.7324 43.5511 86.7324 43.5511L87.9923 43.5509C88.0051 43.5512 88.0179 43.5511 88.0308 43.5511H100.066C100.079 43.5511 100.092 43.5468 100.102 43.539C101.05 42.6607 100.998 41.3313 100.31 40.4831C99.9315 40.0166 99.3608 39.6956 98.6586 39.6752H85.2504C85.2386 39.6752 85.2271 39.6791 85.2178 39.6863C83.7594 41.0368 84.6674 43.4536 86.6139 43.5483C86.653 43.5502 86.6925 43.5511 86.7324 43.5511Z" fill="#2F56E1"/>
<path d="M93.3093 48.79C92.984 49.0415 92.5845 49.1779 92.1734 49.1779C90.3986 49.1779 89.6348 46.9268 91.0432 45.8468L97.2155 41.1139C98.7059 39.9737 97.3262 39.6742 97.3262 39.6742H98.5872C100.615 39.6742 101.59 42.1613 100.102 43.539L93.3093 48.79Z" fill="url(#paint0_linear_790_25687)"/>
<path d="M92.0164 34.4306C92.3377 34.1822 92.7323 34.0475 93.1384 34.0475C94.886 34.0475 95.6438 36.2596 94.2632 37.3311L88.1041 42.1115C86.7324 43.1945 87.9933 43.5512 87.9933 43.5512L86.7324 43.5511C84.7049 43.5511 83.7301 41.0639 85.2178 39.6863L92.0164 34.4306Z" fill="url(#paint1_linear_790_25687)"/>
<path d="M108.918 38.2046C109.717 38.2046 110.367 38.4096 110.869 38.8195C111.378 39.2224 111.647 39.7949 111.675 40.537H110.615C110.586 40.0988 110.424 39.7525 110.127 39.498C109.83 39.2365 109.41 39.1058 108.865 39.1058C108.335 39.1058 107.918 39.2188 107.614 39.445C107.317 39.6712 107.169 39.9822 107.169 40.378C107.169 40.6395 107.243 40.8515 107.392 41.0141C107.547 41.1696 107.727 41.2862 107.932 41.3639C108.137 41.4346 108.413 41.5124 108.759 41.5972L109.607 41.8092C110.017 41.9082 110.364 42.0283 110.646 42.1697C110.929 42.311 111.162 42.516 111.346 42.7846C111.53 43.0461 111.622 43.3924 111.622 43.8236C111.622 44.2901 111.502 44.7 111.261 45.0534C111.028 45.4068 110.685 45.6789 110.233 45.8697C109.788 46.0606 109.261 46.156 108.653 46.156C107.678 46.156 106.929 45.9121 106.406 45.4244C105.883 44.9297 105.607 44.2724 105.579 43.4525H106.639C106.696 44.0109 106.893 44.4491 107.233 44.7671C107.579 45.0852 108.07 45.2442 108.706 45.2442C109.293 45.2442 109.749 45.117 110.074 44.8625C110.399 44.6081 110.562 44.2794 110.562 43.8766C110.562 43.6151 110.484 43.4066 110.328 43.2511C110.18 43.0956 110.003 42.9825 109.798 42.9118C109.6 42.8411 109.307 42.7563 108.918 42.6574L108.07 42.4453C107.484 42.304 107.01 42.0849 106.65 41.788C106.289 41.4841 106.109 41.0141 106.109 40.378C106.109 39.9044 106.24 39.5051 106.501 39.18C106.763 38.8548 107.105 38.611 107.53 38.4484C107.961 38.2859 108.424 38.2046 108.918 38.2046Z" fill="#333333"/>
<path d="M115.383 40.325C115.92 40.325 116.404 40.4381 116.835 40.6642C117.274 40.8904 117.616 41.2226 117.864 41.6608C118.118 42.099 118.245 42.6256 118.245 43.2405C118.245 43.8554 118.118 44.3819 117.864 44.8201C117.616 45.2584 117.274 45.5905 116.835 45.8167C116.404 46.0429 115.92 46.156 115.383 46.156C114.846 46.156 114.358 46.0429 113.92 45.8167C113.489 45.5905 113.146 45.2584 112.892 44.8201C112.644 44.3819 112.521 43.8554 112.521 43.2405C112.521 42.6256 112.644 42.099 112.892 41.6608C113.146 41.2226 113.489 40.8904 113.92 40.6642C114.358 40.4381 114.846 40.325 115.383 40.325ZM115.383 41.1731C114.811 41.1731 114.348 41.3569 113.994 41.7244C113.648 42.0849 113.475 42.5902 113.475 43.2405C113.475 43.8907 113.648 44.3996 113.994 44.7671C114.348 45.1276 114.811 45.3078 115.383 45.3078C115.956 45.3078 116.415 45.1276 116.761 44.7671C117.115 44.3996 117.291 43.8907 117.291 43.2405C117.291 42.5902 117.115 42.0849 116.761 41.7244C116.415 41.3569 115.956 41.1731 115.383 41.1731Z" fill="#333333"/>
<path d="M120.367 38.3636V45.9969H119.413V38.3636H120.367Z" fill="#333333"/>
<path d="M121.326 40.484H122.28L123.871 45.382C123.885 45.4174 123.899 45.4421 123.913 45.4563C123.927 45.4633 123.948 45.4669 123.977 45.4669C124.005 45.4669 124.026 45.4633 124.04 45.4563C124.054 45.4421 124.069 45.4174 124.083 45.382L125.673 40.484H126.627V40.696L124.888 45.9969H123.065L121.326 40.696V40.484Z" fill="#333333"/>
<path d="M128.536 40.484V45.9969H127.582V40.484H128.536ZM128.748 38.3636V39.6358H127.37V38.3636H128.748Z" fill="#333333"/>
<path d="M130.025 40.484H130.979V41.3745C130.979 41.417 131.001 41.4382 131.043 41.4382C131.085 41.4382 131.117 41.417 131.138 41.3745C131.308 41.0353 131.534 40.7773 131.817 40.6006C132.107 40.4168 132.499 40.325 132.994 40.325C133.658 40.325 134.178 40.5193 134.552 40.9081C134.927 41.2897 135.114 41.8375 135.114 42.5513V45.9969H134.16V42.7104C134.16 42.2086 134.033 41.8269 133.778 41.5654C133.524 41.3039 133.156 41.1731 132.676 41.1731C132.131 41.1731 131.711 41.3392 131.414 41.6714C131.124 41.9965 130.979 42.4842 130.979 43.1345V45.9969H130.025V40.484Z" fill="#333333"/>
<path d="M137.184 46.1772C137.24 46.5306 137.403 46.8098 137.672 47.0147C137.947 47.2197 138.318 47.3222 138.785 47.3222C139.421 47.3222 139.912 47.1596 140.258 46.8345C140.612 46.5094 140.788 46.0535 140.788 45.4669V44.8095C140.788 44.7671 140.767 44.7459 140.725 44.7459C140.697 44.7459 140.672 44.7565 140.651 44.7777C140.637 44.7919 140.622 44.8131 140.608 44.8413C140.205 45.5057 139.576 45.8379 138.721 45.8379C138.269 45.8379 137.848 45.7319 137.46 45.5199C137.071 45.3008 136.76 44.9862 136.527 44.5763C136.293 44.1593 136.177 43.661 136.177 43.0814C136.177 42.5019 136.293 42.0071 136.527 41.5972C136.76 41.1802 137.071 40.8657 137.46 40.6536C137.848 40.4345 138.269 40.325 138.721 40.325C139.612 40.325 140.258 40.6854 140.661 41.4064C140.69 41.4629 140.728 41.4912 140.778 41.4912C140.806 41.4912 140.827 41.4876 140.841 41.4806C140.856 41.4664 140.866 41.4417 140.873 41.4064L141.107 40.484H141.743V45.4138C141.743 46.2832 141.481 46.9582 140.958 47.4388C140.435 47.9265 139.707 48.1703 138.774 48.1703C137.975 48.1703 137.346 47.9866 136.887 47.619C136.435 47.2586 136.18 46.7779 136.124 46.1772H137.184ZM137.131 43.0814C137.131 43.4772 137.212 43.82 137.375 44.1098C137.544 44.3925 137.77 44.6116 138.053 44.7671C138.336 44.9156 138.647 44.9898 138.986 44.9898C139.325 44.9898 139.636 44.9156 139.919 44.7671C140.202 44.6116 140.424 44.3925 140.587 44.1098C140.757 43.82 140.841 43.4772 140.841 43.0814C140.841 42.6856 140.757 42.3464 140.587 42.0637C140.424 41.7739 140.202 41.5548 139.919 41.4064C139.636 41.2509 139.325 41.1731 138.986 41.1731C138.647 41.1731 138.336 41.2509 138.053 41.4064C137.77 41.5548 137.544 41.7739 137.375 42.0637C137.212 42.3464 137.131 42.6856 137.131 43.0814Z" fill="#333333"/>
<path d="M143.861 39.1616L145.266 35.3955H145.89L147.303 39.1616H146.633L146.348 38.3514H144.811L144.528 39.1616H143.861ZM145.005 37.7975H146.154L145.582 36.1669H145.577L145.005 37.7975Z" fill="#333333"/>
<path d="M147.909 39.1616V35.3955H148.551V39.1616H147.909Z" fill="#333333"/>
<defs>
<linearGradient id="paint0_linear_790_25687" x1="74.5888" y1="-13.7584" x2="74.5888" y2="63.396" gradientUnits="userSpaceOnUse">
<stop stop-color="#F410AC"/>
<stop offset="1" stop-color="#F410AC" stop-opacity="0"/>
</linearGradient>
<linearGradient id="paint1_linear_790_25687" x1="187.31" y1="-4.78366" x2="123.498" y2="130.261" gradientUnits="userSpaceOnUse">
<stop stop-color="#FFC238"/>
<stop offset="1" stop-color="#FFC238" stop-opacity="0"/>
</linearGradient>
</defs>
</svg>
