<svg width="148" height="28" viewBox="0 0 148 28" fill="none" xmlns="http://www.w3.org/2000/svg">
<path d="M9.98602 27.252C8.23402 27.252 6.65002 26.952 5.23402 26.352C3.84202 25.752 2.73802 24.888 1.92202 23.76C1.10602 22.632 0.686019 21.3 0.662019 19.764H6.06202C6.13402 20.796 6.49402 21.612 7.14202 22.212C7.81402 22.812 8.72602 23.112 9.87802 23.112C11.054 23.112 11.978 22.836 12.65 22.284C13.322 21.708 13.658 20.964 13.658 20.052C13.658 19.308 13.43 18.696 12.974 18.216C12.518 17.736 11.942 17.364 11.246 17.1C10.574 16.812 9.63802 16.5 8.43802 16.164C6.80602 15.684 5.47402 15.216 4.44202 14.76C3.43402 14.28 2.55802 13.572 1.81402 12.636C1.09402 11.676 0.734019 10.404 0.734019 8.82C0.734019 7.332 1.10602 6.036 1.85002 4.932C2.59402 3.828 3.63802 2.988 4.98202 2.412C6.32602 1.812 7.86202 1.512 9.59002 1.512C12.182 1.512 14.282 2.148 15.89 3.42C17.522 4.668 18.422 6.42 18.59 8.676H13.046C12.998 7.812 12.626 7.104 11.93 6.552C11.258 5.976 10.358 5.688 9.23002 5.688C8.24602 5.688 7.45402 5.94 6.85402 6.444C6.27802 6.948 5.99002 7.68 5.99002 8.64C5.99002 9.312 6.20602 9.876 6.63802 10.332C7.09402 10.764 7.64602 11.124 8.29402 11.412C8.96602 11.676 9.90202 11.988 11.102 12.348C12.734 12.828 14.066 13.308 15.098 13.788C16.13 14.268 17.018 14.988 17.762 15.948C18.506 16.908 18.878 18.168 18.878 19.728C18.878 21.072 18.53 22.32 17.834 23.472C17.138 24.624 16.118 25.548 14.774 26.244C13.43 26.916 11.834 27.252 9.98602 27.252ZM33.7595 6.768C35.2715 6.768 36.6155 7.104 37.7915 7.776C38.9675 8.424 39.8795 9.396 40.5275 10.692C41.1995 11.964 41.5355 13.5 41.5355 15.3V27H36.4955V15.984C36.4955 14.4 36.0995 13.188 35.3075 12.348C34.5155 11.484 33.4355 11.052 32.0675 11.052C30.6755 11.052 29.5715 11.484 28.7555 12.348C27.9635 13.188 27.5675 14.4 27.5675 15.984V27H22.5275V0.36H27.5675V9.54C28.2155 8.676 29.0795 8.004 30.1595 7.524C31.2395 7.02 32.4395 6.768 33.7595 6.768ZM54.4643 27.324C52.5443 27.324 50.8163 26.904 49.2803 26.064C47.7443 25.2 46.5323 23.988 45.6443 22.428C44.7803 20.868 44.3483 19.068 44.3483 17.028C44.3483 14.988 44.7923 13.188 45.6803 11.628C46.5923 10.068 47.8283 8.868 49.3883 8.028C50.9483 7.164 52.6883 6.732 54.6083 6.732C56.5283 6.732 58.2683 7.164 59.8283 8.028C61.3883 8.868 62.6123 10.068 63.5003 11.628C64.4123 13.188 64.8683 14.988 64.8683 17.028C64.8683 19.068 64.4003 20.868 63.4643 22.428C62.5523 23.988 61.3043 25.2 59.7203 26.064C58.1603 26.904 56.4083 27.324 54.4643 27.324ZM54.4643 22.932C55.3763 22.932 56.2283 22.716 57.0203 22.284C57.8363 21.828 58.4843 21.156 58.9643 20.268C59.4443 19.38 59.6843 18.3 59.6843 17.028C59.6843 15.132 59.1803 13.68 58.1723 12.672C57.1883 11.64 55.9763 11.124 54.5363 11.124C53.0963 11.124 51.8843 11.64 50.9003 12.672C49.9403 13.68 49.4603 15.132 49.4603 17.028C49.4603 18.924 49.9283 20.388 50.8643 21.42C51.8243 22.428 53.0243 22.932 54.4643 22.932ZM95.4933 7.056L89.6613 27H84.2253L80.5893 13.068L76.9533 27H71.4813L65.6133 7.056H70.7253L74.2533 22.248L78.0693 7.056H83.3973L87.1413 22.212L90.6693 7.056H95.4933Z" fill="#6941C6"/>
<path d="M124.896 1.872V27H119.856V10.656L113.124 27H109.308L102.54 10.656V27H97.5003V1.872H103.224L111.216 20.556L119.208 1.872H124.896ZM147.699 16.596C147.699 17.316 147.651 17.964 147.555 18.54H132.975C133.095 19.98 133.599 21.108 134.487 21.924C135.375 22.74 136.467 23.148 137.763 23.148C139.635 23.148 140.967 22.344 141.759 20.736H147.195C146.619 22.656 145.515 24.24 143.883 25.488C142.251 26.712 140.247 27.324 137.871 27.324C135.951 27.324 134.223 26.904 132.687 26.064C131.175 25.2 129.987 23.988 129.123 22.428C128.283 20.868 127.863 19.068 127.863 17.028C127.863 14.964 128.283 13.152 129.123 11.592C129.963 10.032 131.139 8.832 132.651 7.992C134.163 7.152 135.903 6.732 137.871 6.732C139.767 6.732 141.459 7.14 142.947 7.956C144.459 8.772 145.623 9.936 146.439 11.448C147.279 12.936 147.699 14.652 147.699 16.596ZM142.479 15.156C142.455 13.86 141.987 12.828 141.075 12.06C140.163 11.268 139.047 10.872 137.727 10.872C136.479 10.872 135.423 11.256 134.559 12.024C133.719 12.768 133.203 13.812 133.011 15.156H142.479Z" fill="#42307D"/>
</svg>
