<svg width="184" height="180" viewBox="0 0 184 180" fill="none" xmlns="http://www.w3.org/2000/svg">
<g filter="url(#filter0_dd_922_20809)">
<rect x="42.9854" y="42.9844" width="94.0299" height="94.0299" rx="47.0149" fill="#9E77ED" shape-rendering="crispEdges"/>
<circle cx="90.0004" cy="89.9994" r="38.7182" fill="#6941C6"/>
<path d="M64.9072 86.764V95.2613M81.9017 78.2668V103.759M98.8962 69.7695V112.256M115.891 86.764V95.2613" stroke="white" stroke-width="8.49724" stroke-linecap="round" stroke-linejoin="round"/>
<g filter="url(#filter1_dd_922_20809)">
<rect x="138.964" y="26.8672" width="38.5075" height="38.5075" rx="19.2537" fill="#9E77ED" shape-rendering="crispEdges"/>
<circle cx="158.217" cy="46.1216" r="15.856" fill="#6941C6"/>
<path d="M164.719 44.4431V46.26C164.719 49.7719 161.872 52.6189 158.36 52.6189M152.001 44.4431V46.26C152.001 49.7719 154.848 52.6189 158.36 52.6189M158.36 52.6189V55.3441M154.726 55.3441H161.994M158.36 48.9852C156.855 48.9852 155.635 47.7651 155.635 46.26V39.901C155.635 38.3959 156.855 37.1758 158.36 37.1758C159.865 37.1758 161.085 38.3959 161.085 39.901V46.26C161.085 47.7651 159.865 48.9852 158.36 48.9852Z" stroke="white" stroke-width="1.81684" stroke-linecap="round" stroke-linejoin="round"/>
</g>
</g>
<g filter="url(#filter2_dd_922_20809)">
<rect x="138.806" y="72.5391" width="38.5075" height="38.5075" rx="19.2537" fill="#9E77ED" shape-rendering="crispEdges"/>
<circle cx="158.059" cy="91.7935" r="15.856" fill="#6941C6"/>
<path d="M158.202 99.2018H166.378M150.026 99.2017H151.548C151.992 99.2017 152.214 99.2017 152.423 99.1515C152.609 99.107 152.786 99.0336 152.948 98.934C153.132 98.8217 153.289 98.6645 153.603 98.3503L165.015 86.9381C165.768 86.1856 165.768 84.9654 165.015 84.2129C164.263 83.4603 163.043 83.4603 162.29 84.2129L150.878 95.6251C150.564 95.9393 150.406 96.0964 150.294 96.2798C150.194 96.4423 150.121 96.6195 150.077 96.8049C150.026 97.014 150.026 97.2362 150.026 97.6806V99.2017Z" stroke="white" stroke-width="1.81684" stroke-linecap="round" stroke-linejoin="round"/>
</g>
<g filter="url(#filter3_dd_922_20809)">
<rect x="138.806" y="115.523" width="38.5075" height="38.5075" rx="19.2537" fill="#9E77ED" shape-rendering="crispEdges"/>
<circle cx="158.059" cy="134.778" r="15.856" fill="#6941C6"/>
<path d="M161.836 143.094H162.017C163.544 143.094 164.307 143.094 164.89 142.797C165.403 142.535 165.82 142.118 166.081 141.606C166.378 141.023 166.378 140.26 166.378 138.733V131.103C166.378 129.576 166.378 128.813 166.081 128.23C165.82 127.717 165.403 127.301 164.89 127.039C164.307 126.742 163.544 126.742 162.017 126.742H154.387C152.86 126.742 152.097 126.742 151.514 127.039C151.002 127.301 150.585 127.717 150.323 128.23C150.026 128.813 150.026 129.576 150.026 131.103V131.284M157.748 135.372L162.744 130.376M162.744 130.376H158.202M162.744 130.376V134.918M152.933 143.094H155.295C156.313 143.094 156.821 143.094 157.21 142.896C157.552 142.721 157.83 142.444 158.004 142.102C158.202 141.713 158.202 141.204 158.202 140.187V137.825C158.202 136.807 158.202 136.299 158.004 135.91C157.83 135.568 157.552 135.29 157.21 135.116C156.821 134.918 156.313 134.918 155.295 134.918H152.933C151.916 134.918 151.407 134.918 151.018 135.116C150.677 135.29 150.399 135.568 150.224 135.91C150.026 136.299 150.026 136.807 150.026 137.825V140.187C150.026 141.204 150.026 141.713 150.224 142.102C150.399 142.444 150.677 142.721 151.018 142.896C151.407 143.094 151.916 143.094 152.933 143.094Z" stroke="white" stroke-width="1.81684" stroke-linecap="round" stroke-linejoin="round"/>
</g>
<g filter="url(#filter4_dd_922_20809)">
<rect x="15.2236" y="24.1797" width="38.5075" height="38.5075" rx="19.2537" fill="#9E77ED" shape-rendering="crispEdges"/>
<circle cx="34.4771" cy="43.4341" r="15.856" fill="#6941C6"/>
<path d="M40.069 38.1211L29.168 49.0221M29.168 38.1211L40.069 49.0221" stroke="white" stroke-width="1.81684" stroke-linecap="round" stroke-linejoin="round"/>
</g>
<g filter="url(#filter5_dd_922_20809)">
<rect x="139" y="27" width="38.5075" height="38.5075" rx="19.2537" fill="#9E77ED" shape-rendering="crispEdges"/>
<circle cx="158.118" cy="46.2513" r="23.4896" fill="#FDA29B"/>
<circle cx="158.253" cy="46.2545" r="15.856" fill="#6941C6"/>
<path d="M164.755 44.5759V46.3928C164.755 49.9047 161.908 52.7517 158.396 52.7517M152.037 44.5759V46.3928C152.037 49.9047 154.884 52.7517 158.396 52.7517M158.396 52.7517V55.4769M154.762 55.4769H162.03M158.396 49.118C156.891 49.118 155.671 47.8979 155.671 46.3928V40.0338C155.671 38.5287 156.891 37.3086 158.396 37.3086C159.901 37.3086 161.121 38.5287 161.121 40.0338V46.3928C161.121 47.8979 159.901 49.118 158.396 49.118Z" stroke="white" stroke-width="1.81684" stroke-linecap="round" stroke-linejoin="round"/>
</g>
<defs>
<filter id="filter0_dd_922_20809" x="38.837" y="24.1016" width="142.783" height="118.445" filterUnits="userSpaceOnUse" color-interpolation-filters="sRGB">
<feFlood flood-opacity="0" result="BackgroundImageFix"/>
<feColorMatrix in="SourceAlpha" type="matrix" values="0 0 0 0 0 0 0 0 0 0 0 0 0 0 0 0 0 0 127 0" result="hardAlpha"/>
<feOffset dy="1.38279"/>
<feGaussianBlur stdDeviation="1.38279"/>
<feComposite in2="hardAlpha" operator="out"/>
<feColorMatrix type="matrix" values="0 0 0 0 0.0627451 0 0 0 0 0.0941176 0 0 0 0 0.156863 0 0 0 0.06 0"/>
<feBlend mode="normal" in2="BackgroundImageFix" result="effect1_dropShadow_922_20809"/>
<feColorMatrix in="SourceAlpha" type="matrix" values="0 0 0 0 0 0 0 0 0 0 0 0 0 0 0 0 0 0 127 0" result="hardAlpha"/>
<feOffset dy="1.38279"/>
<feGaussianBlur stdDeviation="2.07419"/>
<feComposite in2="hardAlpha" operator="out"/>
<feColorMatrix type="matrix" values="0 0 0 0 0.0627451 0 0 0 0 0.0941176 0 0 0 0 0.156863 0 0 0 0.1 0"/>
<feBlend mode="normal" in2="effect1_dropShadow_922_20809" result="effect2_dropShadow_922_20809"/>
<feBlend mode="normal" in="SourceGraphic" in2="effect2_dropShadow_922_20809" result="shape"/>
</filter>
<filter id="filter1_dd_922_20809" x="137.265" y="25.7346" width="41.9055" height="41.9055" filterUnits="userSpaceOnUse" color-interpolation-filters="sRGB">
<feFlood flood-opacity="0" result="BackgroundImageFix"/>
<feColorMatrix in="SourceAlpha" type="matrix" values="0 0 0 0 0 0 0 0 0 0 0 0 0 0 0 0 0 0 127 0" result="hardAlpha"/>
<feOffset dy="0.566286"/>
<feGaussianBlur stdDeviation="0.566286"/>
<feComposite in2="hardAlpha" operator="out"/>
<feColorMatrix type="matrix" values="0 0 0 0 0.0627451 0 0 0 0 0.0941176 0 0 0 0 0.156863 0 0 0 0.06 0"/>
<feBlend mode="normal" in2="BackgroundImageFix" result="effect1_dropShadow_922_20809"/>
<feColorMatrix in="SourceAlpha" type="matrix" values="0 0 0 0 0 0 0 0 0 0 0 0 0 0 0 0 0 0 127 0" result="hardAlpha"/>
<feOffset dy="0.566286"/>
<feGaussianBlur stdDeviation="0.849429"/>
<feComposite in2="hardAlpha" operator="out"/>
<feColorMatrix type="matrix" values="0 0 0 0 0.0627451 0 0 0 0 0.0941176 0 0 0 0 0.156863 0 0 0 0.1 0"/>
<feBlend mode="normal" in2="effect1_dropShadow_922_20809" result="effect2_dropShadow_922_20809"/>
<feBlend mode="normal" in="SourceGraphic" in2="effect2_dropShadow_922_20809" result="shape"/>
</filter>
<filter id="filter2_dd_922_20809" x="137.107" y="71.4065" width="41.9055" height="41.9055" filterUnits="userSpaceOnUse" color-interpolation-filters="sRGB">
<feFlood flood-opacity="0" result="BackgroundImageFix"/>
<feColorMatrix in="SourceAlpha" type="matrix" values="0 0 0 0 0 0 0 0 0 0 0 0 0 0 0 0 0 0 127 0" result="hardAlpha"/>
<feOffset dy="0.566286"/>
<feGaussianBlur stdDeviation="0.566286"/>
<feComposite in2="hardAlpha" operator="out"/>
<feColorMatrix type="matrix" values="0 0 0 0 0.0627451 0 0 0 0 0.0941176 0 0 0 0 0.156863 0 0 0 0.06 0"/>
<feBlend mode="normal" in2="BackgroundImageFix" result="effect1_dropShadow_922_20809"/>
<feColorMatrix in="SourceAlpha" type="matrix" values="0 0 0 0 0 0 0 0 0 0 0 0 0 0 0 0 0 0 127 0" result="hardAlpha"/>
<feOffset dy="0.566286"/>
<feGaussianBlur stdDeviation="0.849429"/>
<feComposite in2="hardAlpha" operator="out"/>
<feColorMatrix type="matrix" values="0 0 0 0 0.0627451 0 0 0 0 0.0941176 0 0 0 0 0.156863 0 0 0 0.1 0"/>
<feBlend mode="normal" in2="effect1_dropShadow_922_20809" result="effect2_dropShadow_922_20809"/>
<feBlend mode="normal" in="SourceGraphic" in2="effect2_dropShadow_922_20809" result="shape"/>
</filter>
<filter id="filter3_dd_922_20809" x="137.107" y="114.391" width="41.9055" height="41.9055" filterUnits="userSpaceOnUse" color-interpolation-filters="sRGB">
<feFlood flood-opacity="0" result="BackgroundImageFix"/>
<feColorMatrix in="SourceAlpha" type="matrix" values="0 0 0 0 0 0 0 0 0 0 0 0 0 0 0 0 0 0 127 0" result="hardAlpha"/>
<feOffset dy="0.566286"/>
<feGaussianBlur stdDeviation="0.566286"/>
<feComposite in2="hardAlpha" operator="out"/>
<feColorMatrix type="matrix" values="0 0 0 0 0.0627451 0 0 0 0 0.0941176 0 0 0 0 0.156863 0 0 0 0.06 0"/>
<feBlend mode="normal" in2="BackgroundImageFix" result="effect1_dropShadow_922_20809"/>
<feColorMatrix in="SourceAlpha" type="matrix" values="0 0 0 0 0 0 0 0 0 0 0 0 0 0 0 0 0 0 127 0" result="hardAlpha"/>
<feOffset dy="0.566286"/>
<feGaussianBlur stdDeviation="0.849429"/>
<feComposite in2="hardAlpha" operator="out"/>
<feColorMatrix type="matrix" values="0 0 0 0 0.0627451 0 0 0 0 0.0941176 0 0 0 0 0.156863 0 0 0 0.1 0"/>
<feBlend mode="normal" in2="effect1_dropShadow_922_20809" result="effect2_dropShadow_922_20809"/>
<feBlend mode="normal" in="SourceGraphic" in2="effect2_dropShadow_922_20809" result="shape"/>
</filter>
<filter id="filter4_dd_922_20809" x="13.5248" y="23.0471" width="41.9055" height="41.9055" filterUnits="userSpaceOnUse" color-interpolation-filters="sRGB">
<feFlood flood-opacity="0" result="BackgroundImageFix"/>
<feColorMatrix in="SourceAlpha" type="matrix" values="0 0 0 0 0 0 0 0 0 0 0 0 0 0 0 0 0 0 127 0" result="hardAlpha"/>
<feOffset dy="0.566286"/>
<feGaussianBlur stdDeviation="0.566286"/>
<feComposite in2="hardAlpha" operator="out"/>
<feColorMatrix type="matrix" values="0 0 0 0 0.0627451 0 0 0 0 0.0941176 0 0 0 0 0.156863 0 0 0 0.06 0"/>
<feBlend mode="normal" in2="BackgroundImageFix" result="effect1_dropShadow_922_20809"/>
<feColorMatrix in="SourceAlpha" type="matrix" values="0 0 0 0 0 0 0 0 0 0 0 0 0 0 0 0 0 0 127 0" result="hardAlpha"/>
<feOffset dy="0.566286"/>
<feGaussianBlur stdDeviation="0.849429"/>
<feComposite in2="hardAlpha" operator="out"/>
<feColorMatrix type="matrix" values="0 0 0 0 0.0627451 0 0 0 0 0.0941176 0 0 0 0 0.156863 0 0 0 0.1 0"/>
<feBlend mode="normal" in2="effect1_dropShadow_922_20809" result="effect2_dropShadow_922_20809"/>
<feBlend mode="normal" in="SourceGraphic" in2="effect2_dropShadow_922_20809" result="shape"/>
</filter>
<filter id="filter5_dd_922_20809" x="132.93" y="21.6291" width="50.3772" height="50.3782" filterUnits="userSpaceOnUse" color-interpolation-filters="sRGB">
<feFlood flood-opacity="0" result="BackgroundImageFix"/>
<feColorMatrix in="SourceAlpha" type="matrix" values="0 0 0 0 0 0 0 0 0 0 0 0 0 0 0 0 0 0 127 0" result="hardAlpha"/>
<feOffset dy="0.566286"/>
<feGaussianBlur stdDeviation="0.566286"/>
<feComposite in2="hardAlpha" operator="out"/>
<feColorMatrix type="matrix" values="0 0 0 0 0.0627451 0 0 0 0 0.0941176 0 0 0 0 0.156863 0 0 0 0.06 0"/>
<feBlend mode="normal" in2="BackgroundImageFix" result="effect1_dropShadow_922_20809"/>
<feColorMatrix in="SourceAlpha" type="matrix" values="0 0 0 0 0 0 0 0 0 0 0 0 0 0 0 0 0 0 127 0" result="hardAlpha"/>
<feOffset dy="0.566286"/>
<feGaussianBlur stdDeviation="0.849429"/>
<feComposite in2="hardAlpha" operator="out"/>
<feColorMatrix type="matrix" values="0 0 0 0 0.0627451 0 0 0 0 0.0941176 0 0 0 0 0.156863 0 0 0 0.1 0"/>
<feBlend mode="normal" in2="effect1_dropShadow_922_20809" result="effect2_dropShadow_922_20809"/>
<feBlend mode="normal" in="SourceGraphic" in2="effect2_dropShadow_922_20809" result="shape"/>
</filter>
</defs>
</svg>
