<svg xmlns="http://www.w3.org/2000/svg" viewBox="0 0 1200 520" font-family="Inter, -apple-system, BlinkMacSystemFont, sans-serif">
  <defs>
    <style>
      .title { font-size: 24px; font-weight: 700; fill: #1A1A1A; }
      .metric-label { font-size: 10px; fill: #999; text-transform: uppercase; letter-spacing: 1px; font-weight: 600; }
      .item-label { font-size: 13px; font-weight: 500; fill: #1A1A1A; }
      .item-desc { font-size: 11px; fill: #6B6B6B; }
      .pass { font-size: 11px; font-weight: 700; fill: #16A34A; }
      .fail-before { font-size: 11px; font-weight: 600; fill: #DC2626; }
    </style>
  </defs>

  <rect width="1200" height="520" rx="16" fill="#FAFAF8"/>
  <rect x="0" y="0" width="1200" height="4" rx="2" fill="#16A34A"/>

  <!-- Header -->
  <text x="48" y="44" class="metric-label">ACCESSIBILITY COMPLIANCE</text>
  <text x="48" y="76" class="title">WCAG AA Audit Results — Before &amp; After</text>
  <text x="48" y="100" style="font-size: 14px; fill: #6B6B6B;">Compliance assessment across all critical AI interaction flows</text>

  <!-- Score cards -->
  <rect x="900" y="30" width="130" height="80" rx="12" fill="white" stroke="#DCFCE7" stroke-width="2"/>
  <text x="920" y="56" class="metric-label">AFTER</text>
  <text x="920" y="90" style="font-size: 32px; font-weight: 700; fill: #16A34A;">AA Pass</text>

  <rect x="1050" y="30" width="110" height="80" rx="12" fill="white" stroke="#FECACA" stroke-width="2"/>
  <text x="1070" y="56" class="metric-label">BEFORE</text>
  <text x="1070" y="90" style="font-size: 32px; font-weight: 700; fill: #DC2626;">12 Fails</text>

  <!-- Column Headers -->
  <rect x="48" y="130" width="1104" height="36" rx="6" fill="#F2F1EF"/>
  <text x="72" y="154" style="font-size: 11px; font-weight: 700; fill: #6B6B6B;">CRITERION</text>
  <text x="500" y="154" style="font-size: 11px; font-weight: 700; fill: #6B6B6B;">DESCRIPTION</text>
  <text x="900" y="154" style="font-size: 11px; font-weight: 700; fill: #6B6B6B;">BEFORE</text>
  <text x="1020" y="154" style="font-size: 11px; font-weight: 700; fill: #6B6B6B;">AFTER</text>

  <!-- Row 1 -->
  <rect x="48" y="170" width="1104" height="42" rx="0" fill="white"/>
  <text x="72" y="196" class="item-label">1.1.1 Non-text Content</text>
  <text x="500" y="196" class="item-desc">Alt text for AI-generated charts and data visualizations</text>
  <rect x="900" y="184" width="48" height="20" rx="4" fill="#FEF2F2"/>
  <text x="912" y="198" class="fail-before">FAIL</text>
  <rect x="1020" y="184" width="48" height="20" rx="4" fill="#DCFCE7"/>
  <text x="1030" y="198" class="pass">PASS</text>

  <!-- Row 2 -->
  <rect x="48" y="212" width="1104" height="42" rx="0" fill="#FAFAF8"/>
  <text x="72" y="238" class="item-label">1.3.1 Info and Relationships</text>
  <text x="500" y="238" class="item-desc">Semantic structure for AI configuration forms and outputs</text>
  <rect x="900" y="226" width="48" height="20" rx="4" fill="#FEF2F2"/>
  <text x="912" y="240" class="fail-before">FAIL</text>
  <rect x="1020" y="226" width="48" height="20" rx="4" fill="#DCFCE7"/>
  <text x="1030" y="240" class="pass">PASS</text>

  <!-- Row 3 -->
  <rect x="48" y="254" width="1104" height="42" rx="0" fill="white"/>
  <text x="72" y="280" class="item-label">1.4.3 Contrast (Minimum)</text>
  <text x="500" y="280" class="item-desc">4.5:1 contrast ratio for all text including data labels</text>
  <rect x="900" y="268" width="48" height="20" rx="4" fill="#FEF2F2"/>
  <text x="912" y="282" class="fail-before">FAIL</text>
  <rect x="1020" y="268" width="48" height="20" rx="4" fill="#DCFCE7"/>
  <text x="1030" y="282" class="pass">PASS</text>

  <!-- Row 4 -->
  <rect x="48" y="296" width="1104" height="42" rx="0" fill="#FAFAF8"/>
  <text x="72" y="322" class="item-label">2.1.1 Keyboard</text>
  <text x="500" y="322" class="item-desc">Full keyboard navigation for interactive data charts and AI controls</text>
  <rect x="900" y="310" width="48" height="20" rx="4" fill="#FEF2F2"/>
  <text x="912" y="324" class="fail-before">FAIL</text>
  <rect x="1020" y="310" width="48" height="20" rx="4" fill="#DCFCE7"/>
  <text x="1030" y="324" class="pass">PASS</text>

  <!-- Row 5 -->
  <rect x="48" y="338" width="1104" height="42" rx="0" fill="white"/>
  <text x="72" y="364" class="item-label">2.4.6 Headings and Labels</text>
  <text x="500" y="364" class="item-desc">Descriptive headings for each AI workflow step</text>
  <rect x="900" y="352" width="48" height="20" rx="4" fill="#FEF3C7"/>
  <text x="906" y="366" style="font-size: 11px; font-weight: 600; fill: #92400E;">PARTIAL</text>
  <rect x="1020" y="352" width="48" height="20" rx="4" fill="#DCFCE7"/>
  <text x="1030" y="366" class="pass">PASS</text>

  <!-- Row 6 -->
  <rect x="48" y="380" width="1104" height="42" rx="0" fill="#FAFAF8"/>
  <text x="72" y="406" class="item-label">3.3.1 Error Identification</text>
  <text x="500" y="406" class="item-desc">Clear error messages for invalid AI configuration parameters</text>
  <rect x="900" y="394" width="48" height="20" rx="4" fill="#FEF2F2"/>
  <text x="912" y="408" class="fail-before">FAIL</text>
  <rect x="1020" y="394" width="48" height="20" rx="4" fill="#DCFCE7"/>
  <text x="1030" y="408" class="pass">PASS</text>

  <!-- Row 7 -->
  <rect x="48" y="422" width="1104" height="42" rx="0" fill="white"/>
  <text x="72" y="448" class="item-label">4.1.2 Name, Role, Value</text>
  <text x="500" y="448" class="item-desc">ARIA labels for custom AI interaction components</text>
  <rect x="900" y="436" width="48" height="20" rx="4" fill="#FEF2F2"/>
  <text x="912" y="450" class="fail-before">FAIL</text>
  <rect x="1020" y="436" width="48" height="20" rx="4" fill="#DCFCE7"/>
  <text x="1030" y="450" class="pass">PASS</text>

  <!-- Footer -->
  <rect x="48" y="476" width="1104" height="32" rx="6" fill="#DCFCE7"/>
  <text x="72" y="498" style="font-size: 12px; font-weight: 600; fill: #166534;">Result: All critical AI interaction flows now meet WCAG 2.1 Level AA compliance</text>
  <text x="900" y="498" style="font-size: 11px; fill: #166534;">12 violations resolved across 7 success criteria</text>
</svg>
