<svg xmlns="http://www.w3.org/2000/svg" viewBox="0 0 1200 520" font-family="Inter, -apple-system, BlinkMacSystemFont, sans-serif">
  <defs>
    <style>
      .metric-label { font-size: 10px; fill: #999; text-transform: uppercase; letter-spacing: 1px; font-weight: 600; }
    </style>
  </defs>

  <rect width="1200" height="520" rx="16" fill="#FAFAF8"/>
  <rect x="0" y="0" width="1200" height="4" rx="2" fill="#16A34A"/>

  <!-- Header -->
  <text x="48" y="44" class="metric-label">ACCESSIBILITY COMPLIANCE</text>
  <text x="48" y="78" style="font-size: 22px; font-weight: 700; fill: #1A1A1A;">WCAG AA Audit Results — Before &amp; After</text>
  <text x="48" y="102" style="font-size: 14px; fill: #6B6B6B;">Compliance assessment across all critical AI interaction flows</text>

  <!-- Score summary cards (Before on left, After on right) -->
  <rect x="880" y="28" width="140" height="84" rx="12" fill="white" stroke="#FECACA" stroke-width="2"/>
  <text x="950" y="52" text-anchor="middle" class="metric-label">BEFORE</text>
  <text x="950" y="82" text-anchor="middle" style="font-size: 28px; font-weight: 700; fill: #DC2626;">12 Fails</text>
  <text x="950" y="102" text-anchor="middle" style="font-size: 10px; fill: #DC2626;">Non-compliant</text>

  <rect x="1040" y="28" width="112" height="84" rx="12" fill="#F0FDF4" stroke="#16A34A" stroke-width="2"/>
  <text x="1096" y="52" text-anchor="middle" class="metric-label" style="fill: #16A34A;">AFTER</text>
  <text x="1096" y="84" text-anchor="middle" style="font-size: 28px; font-weight: 700; fill: #16A34A;">AA</text>
  <text x="1096" y="102" text-anchor="middle" style="font-size: 10px; font-weight: 600; fill: #16A34A;">Compliant</text>

  <!-- Column Headers -->
  <rect x="48" y="128" width="1104" height="36" rx="6" fill="#F2F1EF"/>
  <text x="72" y="152" style="font-size: 10px; font-weight: 700; fill: #6B6B6B; letter-spacing: 0.5px;">CRITERION</text>
  <text x="420" y="152" style="font-size: 10px; font-weight: 700; fill: #6B6B6B; letter-spacing: 0.5px;">DESCRIPTION</text>
  <text x="896" y="152" text-anchor="middle" style="font-size: 10px; font-weight: 700; fill: #6B6B6B; letter-spacing: 0.5px;">BEFORE</text>
  <text x="1056" y="152" text-anchor="middle" style="font-size: 10px; font-weight: 700; fill: #6B6B6B; letter-spacing: 0.5px;">AFTER</text>

  <!-- Row 1 -->
  <rect x="48" y="168" width="1104" height="40" fill="white"/>
  <line x1="48" y1="208" x2="1152" y2="208" stroke="#F2F1EF" stroke-width="1"/>
  <text x="72" y="193" style="font-size: 13px; font-weight: 500; fill: #1A1A1A;">1.1.1 Non-text Content</text>
  <text x="420" y="193" style="font-size: 11px; fill: #6B6B6B;">Alt text for AI-generated charts and data visualizations</text>
  <rect x="864" y="179" width="64" height="22" rx="4" fill="#FEF2F2"/>
  <text x="896" y="194" text-anchor="middle" style="font-size: 10px; font-weight: 700; fill: #DC2626;">FAIL</text>
  <rect x="1024" y="179" width="64" height="22" rx="4" fill="#DCFCE7"/>
  <text x="1056" y="194" text-anchor="middle" style="font-size: 10px; font-weight: 700; fill: #16A34A;">PASS</text>

  <!-- Row 2 -->
  <rect x="48" y="208" width="1104" height="40" fill="#FAFAF8"/>
  <line x1="48" y1="248" x2="1152" y2="248" stroke="#F2F1EF" stroke-width="1"/>
  <text x="72" y="233" style="font-size: 13px; font-weight: 500; fill: #1A1A1A;">1.3.1 Info and Relationships</text>
  <text x="420" y="233" style="font-size: 11px; fill: #6B6B6B;">Semantic structure for AI configuration forms and outputs</text>
  <rect x="864" y="219" width="64" height="22" rx="4" fill="#FEF2F2"/>
  <text x="896" y="234" text-anchor="middle" style="font-size: 10px; font-weight: 700; fill: #DC2626;">FAIL</text>
  <rect x="1024" y="219" width="64" height="22" rx="4" fill="#DCFCE7"/>
  <text x="1056" y="234" text-anchor="middle" style="font-size: 10px; font-weight: 700; fill: #16A34A;">PASS</text>

  <!-- Row 3 -->
  <rect x="48" y="248" width="1104" height="40" fill="white"/>
  <line x1="48" y1="288" x2="1152" y2="288" stroke="#F2F1EF" stroke-width="1"/>
  <text x="72" y="273" style="font-size: 13px; font-weight: 500; fill: #1A1A1A;">1.4.3 Contrast (Minimum)</text>
  <text x="420" y="273" style="font-size: 11px; fill: #6B6B6B;">4.5:1 contrast ratio for all text including data labels</text>
  <rect x="864" y="259" width="64" height="22" rx="4" fill="#FEF2F2"/>
  <text x="896" y="274" text-anchor="middle" style="font-size: 10px; font-weight: 700; fill: #DC2626;">FAIL</text>
  <rect x="1024" y="259" width="64" height="22" rx="4" fill="#DCFCE7"/>
  <text x="1056" y="274" text-anchor="middle" style="font-size: 10px; font-weight: 700; fill: #16A34A;">PASS</text>

  <!-- Row 4 -->
  <rect x="48" y="288" width="1104" height="40" fill="#FAFAF8"/>
  <line x1="48" y1="328" x2="1152" y2="328" stroke="#F2F1EF" stroke-width="1"/>
  <text x="72" y="313" style="font-size: 13px; font-weight: 500; fill: #1A1A1A;">2.1.1 Keyboard</text>
  <text x="420" y="313" style="font-size: 11px; fill: #6B6B6B;">Full keyboard navigation for interactive data charts and AI controls</text>
  <rect x="864" y="299" width="64" height="22" rx="4" fill="#FEF2F2"/>
  <text x="896" y="314" text-anchor="middle" style="font-size: 10px; font-weight: 700; fill: #DC2626;">FAIL</text>
  <rect x="1024" y="299" width="64" height="22" rx="4" fill="#DCFCE7"/>
  <text x="1056" y="314" text-anchor="middle" style="font-size: 10px; font-weight: 700; fill: #16A34A;">PASS</text>

  <!-- Row 5 -->
  <rect x="48" y="328" width="1104" height="40" fill="white"/>
  <line x1="48" y1="368" x2="1152" y2="368" stroke="#F2F1EF" stroke-width="1"/>
  <text x="72" y="353" style="font-size: 13px; font-weight: 500; fill: #1A1A1A;">2.4.6 Headings and Labels</text>
  <text x="420" y="353" style="font-size: 11px; fill: #6B6B6B;">Descriptive headings for each AI workflow step</text>
  <rect x="856" y="339" width="80" height="22" rx="4" fill="#FEF3C7"/>
  <text x="896" y="354" text-anchor="middle" style="font-size: 10px; font-weight: 700; fill: #92400E;">PARTIAL</text>
  <rect x="1024" y="339" width="64" height="22" rx="4" fill="#DCFCE7"/>
  <text x="1056" y="354" text-anchor="middle" style="font-size: 10px; font-weight: 700; fill: #16A34A;">PASS</text>

  <!-- Row 6 -->
  <rect x="48" y="368" width="1104" height="40" fill="#FAFAF8"/>
  <line x1="48" y1="408" x2="1152" y2="408" stroke="#F2F1EF" stroke-width="1"/>
  <text x="72" y="393" style="font-size: 13px; font-weight: 500; fill: #1A1A1A;">3.3.1 Error Identification</text>
  <text x="420" y="393" style="font-size: 11px; fill: #6B6B6B;">Clear error messages for invalid AI configuration parameters</text>
  <rect x="864" y="379" width="64" height="22" rx="4" fill="#FEF2F2"/>
  <text x="896" y="394" text-anchor="middle" style="font-size: 10px; font-weight: 700; fill: #DC2626;">FAIL</text>
  <rect x="1024" y="379" width="64" height="22" rx="4" fill="#DCFCE7"/>
  <text x="1056" y="394" text-anchor="middle" style="font-size: 10px; font-weight: 700; fill: #16A34A;">PASS</text>

  <!-- Row 7 -->
  <rect x="48" y="408" width="1104" height="40" fill="white"/>
  <line x1="48" y1="448" x2="1152" y2="448" stroke="#F2F1EF" stroke-width="1"/>
  <text x="72" y="433" style="font-size: 13px; font-weight: 500; fill: #1A1A1A;">4.1.2 Name, Role, Value</text>
  <text x="420" y="433" style="font-size: 11px; fill: #6B6B6B;">ARIA labels for custom AI interaction components</text>
  <rect x="864" y="419" width="64" height="22" rx="4" fill="#FEF2F2"/>
  <text x="896" y="434" text-anchor="middle" style="font-size: 10px; font-weight: 700; fill: #DC2626;">FAIL</text>
  <rect x="1024" y="419" width="64" height="22" rx="4" fill="#DCFCE7"/>
  <text x="1056" y="434" text-anchor="middle" style="font-size: 10px; font-weight: 700; fill: #16A34A;">PASS</text>

  <!-- Footer -->
  <rect x="48" y="464" width="1104" height="40" rx="10" fill="white" stroke="#DCFCE7" stroke-width="1.5"/>
  <rect x="48" y="464" width="4" height="40" rx="2" fill="#16A34A"/>
  <text x="72" y="489" style="font-size: 12px; font-weight: 600; fill: #166534;">Result: All critical AI interaction flows now meet WCAG 2.1 Level AA compliance</text>
  <text x="1148" y="489" text-anchor="end" style="font-size: 11px; fill: #166534;">12 violations resolved across 7 success criteria</text>
</svg>
