<svg xmlns="http://www.w3.org/2000/svg" viewBox="0 0 1200 520" font-family="Inter, -apple-system, BlinkMacSystemFont, sans-serif">
  <defs>
    <style>
      .metric-label { font-size: 10px; fill: #999; text-transform: uppercase; letter-spacing: 1px; font-weight: 600; }
    </style>
  </defs>

  <rect width="1200" height="520" rx="16" fill="#FAFAF8"/>
  <rect x="0" y="0" width="1200" height="4" rx="2" fill="#1A1A1A"/>

  <!-- Header -->
  <text x="48" y="44" class="metric-label">DESIGN EXPLORATION — BUCKET.IO</text>
  <text x="48" y="76" style="font-size: 22px; font-weight: 700; fill: #1A1A1A;">Two Design Directions for Stakeholder Evaluation</text>
  <text x="48" y="100" style="font-size: 14px; fill: #6B6B6B;">Divergent concepts tested with 8 users before converging on final direction</text>

  <!-- ==================== OPTION A: Guided Simplicity ==================== -->
  <!-- Label -->
  <rect x="48" y="118" width="220" height="24" rx="6" fill="#2563EB"/>
  <text x="68" y="134" style="font-size: 11px; font-weight: 600; fill: white;">Option A — Guided Simplicity</text>

  <!-- Browser chrome frame -->
  <rect x="48" y="148" width="546" height="280" rx="8" fill="white" stroke="#E5E5E3" stroke-width="1.5"/>
  <!-- Title bar -->
  <rect x="48" y="148" width="546" height="28" rx="8" fill="#F2F1EF"/>
  <rect x="48" y="168" width="546" height="8" fill="#F2F1EF"/>
  <!-- Traffic light dots -->
  <circle cx="68" cy="162" r="4" fill="#EF4444"/>
  <circle cx="82" cy="162" r="4" fill="#F59E0B"/>
  <circle cx="96" cy="162" r="4" fill="#16A34A"/>
  <!-- URL bar -->
  <rect x="120" y="155" width="300" height="14" rx="4" fill="white" stroke="#E5E5E3" stroke-width="0.5"/>
  <rect x="132" y="160" width="80" height="4" rx="1" fill="#E5E5E3"/>

  <!-- Option A content: Clean, minimal single-column layout -->
  <!-- Step indicator at top -->
  <rect x="170" y="192" width="302" height="16" rx="8" fill="#F2F1EF"/>
  <!-- Step dots -->
  <circle cx="250" cy="200" r="5" fill="#2563EB"/>
  <circle cx="280" cy="200" r="5" fill="#2563EB"/>
  <circle cx="310" cy="200" r="5" fill="#2563EB" opacity="0.3"/>
  <circle cx="340" cy="200" r="5" fill="#E5E5E3"/>
  <circle cx="370" cy="200" r="5" fill="#E5E5E3"/>
  <!-- Step labels -->
  <text x="240" y="224" style="font-size: 7px; fill: #2563EB;">Select</text>
  <text x="268" y="224" style="font-size: 7px; fill: #2563EB;">Configure</text>
  <text x="300" y="224" style="font-size: 7px; fill: #999;">Generate</text>
  <text x="334" y="224" style="font-size: 7px; fill: #999;">Refine</text>
  <text x="362" y="224" style="font-size: 7px; fill: #999;">Export</text>

  <!-- Large centered heading -->
  <rect x="168" y="244" width="306" height="10" rx="3" fill="#1A1A1A"/>
  <!-- Subtitle -->
  <rect x="200" y="264" width="242" height="6" rx="2" fill="#CBD5E1"/>

  <!-- Single centered card -->
  <rect x="148" y="284" width="346" height="96" rx="8" fill="white" stroke="#E5E5E3" stroke-width="1"/>
  <!-- Card content -->
  <rect x="168" y="300" width="200" height="6" rx="2" fill="#E5E5E3"/>
  <rect x="168" y="314" width="280" height="5" rx="2" fill="#F2F1EF"/>
  <rect x="168" y="326" width="260" height="5" rx="2" fill="#F2F1EF"/>
  <rect x="168" y="338" width="220" height="5" rx="2" fill="#F2F1EF"/>
  <!-- Inline help text -->
  <rect x="168" y="354" width="160" height="4" rx="1" fill="#BFDBFE"/>

  <!-- Lots of whitespace, then centered CTA -->
  <rect x="228" y="396" width="186" height="24" rx="6" fill="#2563EB"/>
  <text x="321" y="412" style="font-size: 9px; font-weight: 600; fill: white;" text-anchor="middle">Continue</text>

  <!-- ==================== OPTION B: Power Dashboard ==================== -->
  <!-- Label -->
  <rect x="618" y="118" width="240" height="24" rx="6" fill="#1A1A1A"/>
  <text x="638" y="134" style="font-size: 11px; font-weight: 600; fill: white;">Option B — Power Dashboard</text>

  <!-- Browser chrome frame -->
  <rect x="606" y="148" width="546" height="280" rx="8" fill="white" stroke="#E5E5E3" stroke-width="1.5"/>
  <!-- Title bar -->
  <rect x="606" y="148" width="546" height="28" rx="8" fill="#F2F1EF"/>
  <rect x="606" y="168" width="546" height="8" fill="#F2F1EF"/>
  <!-- Traffic light dots -->
  <circle cx="626" cy="162" r="4" fill="#EF4444"/>
  <circle cx="640" cy="162" r="4" fill="#F59E0B"/>
  <circle cx="654" cy="162" r="4" fill="#16A34A"/>
  <!-- URL bar -->
  <rect x="678" y="155" width="300" height="14" rx="4" fill="white" stroke="#E5E5E3" stroke-width="0.5"/>
  <rect x="690" y="160" width="80" height="4" rx="1" fill="#E5E5E3"/>

  <!-- Option B content: Sidebar + multi-panel dashboard -->
  <!-- Sidebar navigation -->
  <rect x="618" y="180" width="100" height="240" rx="0" fill="#F2F1EF"/>
  <rect x="618" y="180" width="100" height="240" rx="0" fill="#F2F1EF"/>
  <!-- Sidebar items -->
  <rect x="628" y="196" width="80" height="6" rx="2" fill="#1A1A1A"/>
  <rect x="628" y="214" width="70" height="5" rx="2" fill="#CBD5E1"/>
  <rect x="628" y="228" width="70" height="5" rx="2" fill="#CBD5E1"/>
  <!-- Active item -->
  <rect x="622" y="240" width="92" height="18" rx="4" fill="#EFF6FF"/>
  <rect x="628" y="247" width="70" height="5" rx="2" fill="#2563EB"/>
  <rect x="628" y="268" width="70" height="5" rx="2" fill="#CBD5E1"/>
  <rect x="628" y="282" width="70" height="5" rx="2" fill="#CBD5E1"/>
  <!-- Divider -->
  <line x1="628" y1="300" x2="708" y2="300" stroke="#E5E5E3" stroke-width="0.5"/>
  <rect x="628" y="312" width="60" height="5" rx="2" fill="#E5E5E3"/>
  <rect x="628" y="326" width="50" height="5" rx="2" fill="#E5E5E3"/>
  <!-- Status indicator -->
  <rect x="628" y="386" width="80" height="20" rx="4" fill="#DCFCE7"/>
  <rect x="638" y="394" width="50" height="4" rx="1" fill="#16A34A"/>

  <!-- Main content area header -->
  <rect x="730" y="186" width="140" height="7" rx="2" fill="#1A1A1A"/>
  <rect x="730" y="200" width="100" height="5" rx="2" fill="#CBD5E1"/>
  <!-- Top action buttons -->
  <rect x="1054" y="184" width="52" height="16" rx="4" fill="#2563EB"/>
  <text x="1066" y="195" style="font-size: 6px; font-weight: 600; fill: white;">New</text>
  <rect x="1110" y="184" width="30" height="16" rx="4" fill="white" stroke="#E5E5E3" stroke-width="0.5"/>

  <!-- Compact card panel row -->
  <!-- Card 1 -->
  <rect x="730" y="216" width="108" height="72" rx="6" fill="white" stroke="#E5E5E3" stroke-width="1"/>
  <rect x="740" y="226" width="60" height="5" rx="2" fill="#E5E5E3"/>
  <rect x="740" y="238" width="88" height="4" rx="2" fill="#F2F1EF"/>
  <rect x="740" y="248" width="70" height="4" rx="2" fill="#F2F1EF"/>
  <!-- Mini metric -->
  <rect x="740" y="262" width="40" height="16" rx="4" fill="#EFF6FF"/>
  <text x="748" y="274" style="font-size: 7px; font-weight: 700; fill: #2563EB;">85%</text>
  <rect x="788" y="266" width="40" height="10" rx="3" fill="#F2F1EF"/>

  <!-- Card 2 -->
  <rect x="846" y="216" width="108" height="72" rx="6" fill="white" stroke="#E5E5E3" stroke-width="1"/>
  <rect x="856" y="226" width="60" height="5" rx="2" fill="#E5E5E3"/>
  <rect x="856" y="238" width="88" height="4" rx="2" fill="#F2F1EF"/>
  <rect x="856" y="248" width="70" height="4" rx="2" fill="#F2F1EF"/>
  <rect x="856" y="262" width="40" height="16" rx="4" fill="#EFF6FF"/>
  <text x="864" y="274" style="font-size: 7px; font-weight: 700; fill: #2563EB;">12</text>
  <rect x="904" y="266" width="40" height="10" rx="3" fill="#F2F1EF"/>

  <!-- Card 3 -->
  <rect x="962" y="216" width="108" height="72" rx="6" fill="white" stroke="#E5E5E3" stroke-width="1"/>
  <rect x="972" y="226" width="60" height="5" rx="2" fill="#E5E5E3"/>
  <rect x="972" y="238" width="88" height="4" rx="2" fill="#F2F1EF"/>
  <rect x="972" y="248" width="70" height="4" rx="2" fill="#F2F1EF"/>
  <rect x="972" y="262" width="40" height="16" rx="4" fill="#EFF6FF"/>
  <text x="980" y="274" style="font-size: 7px; font-weight: 700; fill: #2563EB;">3.2k</text>
  <rect x="1020" y="266" width="40" height="10" rx="3" fill="#F2F1EF"/>

  <!-- Mini card 4 (small, data-dense) -->
  <rect x="1078" y="216" width="64" height="72" rx="6" fill="white" stroke="#E5E5E3" stroke-width="1"/>
  <rect x="1086" y="226" width="48" height="5" rx="2" fill="#E5E5E3"/>
  <rect x="1086" y="240" width="48" height="36" rx="4" fill="#F2F1EF"/>
  <!-- Mini chart bars -->
  <rect x="1092" y="262" width="6" height="12" rx="1" fill="#BFDBFE"/>
  <rect x="1102" y="256" width="6" height="18" rx="1" fill="#BFDBFE"/>
  <rect x="1112" y="250" width="6" height="24" rx="1" fill="#2563EB"/>
  <rect x="1122" y="258" width="6" height="16" rx="1" fill="#BFDBFE"/>

  <!-- Data table section -->
  <rect x="730" y="298" width="412" height="18" rx="4" fill="#F2F1EF"/>
  <rect x="740" y="304" width="50" height="4" rx="1" fill="#6B6B6B"/>
  <rect x="860" y="304" width="40" height="4" rx="1" fill="#6B6B6B"/>
  <rect x="980" y="304" width="40" height="4" rx="1" fill="#6B6B6B"/>
  <rect x="1090" y="304" width="40" height="4" rx="1" fill="#6B6B6B"/>

  <rect x="730" y="320" width="412" height="16" rx="0" fill="white"/>
  <rect x="740" y="326" width="80" height="4" rx="1" fill="#E5E5E3"/>
  <rect x="860" y="326" width="30" height="4" rx="1" fill="#CBD5E1"/>
  <rect x="980" y="326" width="40" height="4" rx="1" fill="#CBD5E1"/>
  <rect x="1090" y="324" width="50" height="10" rx="3" fill="#DCFCE7"/>

  <rect x="730" y="338" width="412" height="16" rx="0" fill="#FAFAF8"/>
  <rect x="740" y="344" width="90" height="4" rx="1" fill="#E5E5E3"/>
  <rect x="860" y="344" width="30" height="4" rx="1" fill="#CBD5E1"/>
  <rect x="980" y="344" width="40" height="4" rx="1" fill="#CBD5E1"/>
  <rect x="1090" y="342" width="50" height="10" rx="3" fill="#FEF3C7"/>

  <rect x="730" y="356" width="412" height="16" rx="0" fill="white"/>
  <rect x="740" y="362" width="70" height="4" rx="1" fill="#E5E5E3"/>
  <rect x="860" y="362" width="30" height="4" rx="1" fill="#CBD5E1"/>
  <rect x="980" y="362" width="40" height="4" rx="1" fill="#CBD5E1"/>
  <rect x="1090" y="360" width="50" height="10" rx="3" fill="#DCFCE7"/>

  <rect x="730" y="374" width="412" height="16" rx="0" fill="#FAFAF8"/>
  <rect x="740" y="380" width="100" height="4" rx="1" fill="#E5E5E3"/>
  <rect x="860" y="380" width="30" height="4" rx="1" fill="#CBD5E1"/>
  <rect x="980" y="380" width="40" height="4" rx="1" fill="#CBD5E1"/>
  <rect x="1090" y="378" width="50" height="10" rx="3" fill="#FEF2F2"/>

  <!-- Pagination -->
  <rect x="1060" y="398" width="20" height="12" rx="3" fill="#F2F1EF"/>
  <rect x="1084" y="398" width="20" height="12" rx="3" fill="#2563EB"/>
  <rect x="1108" y="398" width="20" height="12" rx="3" fill="#F2F1EF"/>

  <!-- ==================== COMPARISON ROW ==================== -->
  <rect x="48" y="444" width="1104" height="60" rx="12" fill="white" stroke="#E5E5E3" stroke-width="1"/>

  <!-- Option A pros -->
  <rect x="48" y="444" width="4" height="60" rx="2" fill="#2563EB"/>
  <text x="72" y="466" style="font-size: 11px; font-weight: 700; fill: #2563EB;">Option A</text>
  <text x="136" y="466" style="font-size: 11px; fill: #6B6B6B;">Lower cognitive load, faster completion</text>
  <rect x="72" y="476" width="460" height="14" rx="4" fill="#EFF6FF"/>
  <text x="82" y="487" style="font-size: 9px; fill: #2563EB;">Best for: First-time users, quick tasks, mobile-friendly flows</text>

  <!-- Divider -->
  <line x1="600" y1="454" x2="600" y2="496" stroke="#E5E5E3" stroke-width="1"/>

  <!-- Option B pros -->
  <text x="624" y="466" style="font-size: 11px; font-weight: 700; fill: #1A1A1A;">Option B</text>
  <text x="688" y="466" style="font-size: 11px; fill: #6B6B6B;">More control, advanced users prefer</text>
  <rect x="624" y="476" width="460" height="14" rx="4" fill="#F2F1EF"/>
  <text x="634" y="487" style="font-size: 9px; fill: #6B6B6B;">Best for: Power users, repeat usage, data-heavy workflows</text>
</svg>